M48
; DRILL file {KiCad 7.0.6} date Thu Aug 31 21:12:28 2023
; FORMAT={-:-/ absolute / inch / decimal}
; #@! TF.CreationDate,2023-08-31T21:12:28+05:30
; #@! TF.GenerationSoftware,Kicad,Pcbnew,7.0.6
; #@! TF.FileFunction,Plated,1,2,PTH
FMAT,2
INCH
; #@! TA.AperFunction,Plated,PTH,ComponentDrill
T1C0.0276
; #@! TA.AperFunction,Plated,PTH,ComponentDrill
T2C0.0315
; #@! TA.AperFunction,Plated,PTH,ComponentDrill
T3C0.0354
; #@! TA.AperFunction,Plated,PTH,ComponentDrill
T4C0.0394
; #@! TA.AperFunction,Plated,PTH,ComponentDrill
T5C0.0433
; #@! TA.AperFunction,Plated,PTH,ComponentDrill
T6C0.0598
%
G90
G05
T1
X4.3893Y-3.9
X4.3893Y-4.47
X4.3893Y-4.74
X4.6893Y-3.9
X4.6893Y-4.47
X4.6893Y-4.74
T2
X3.86Y-3.38
X3.9584Y-3.38
X4.0516Y-4.85
X4.1116Y-3.39
X4.15Y-4.85
X4.21Y-3.39
T3
X4.5495Y-4.18
X4.6495Y-4.18
T4
X4.01Y-5.14
X4.06Y-3.19
X4.11Y-5.14
X4.16Y-3.19
X4.21Y-5.14
X4.26Y-3.19
X4.92Y-3.19
X4.92Y-3.29
X4.92Y-5.09
X4.92Y-5.19
T5
X3.85Y-4.59
X3.87Y-3.69
X3.95Y-4.59
X3.97Y-3.69
X4.05Y-4.59
X4.07Y-3.69
T6
X4.42Y-5.1
X4.48Y-3.2766
X4.62Y-5.1
X4.68Y-3.2766
T4
G00X4.05Y-4.0906
M15
G01X4.05Y-4.1694
M16
G05
G00X4.1287Y-4.315
M15
G01X4.2075Y-4.315
M16
G05
G00X4.2862Y-4.0906
M15
G01X4.2862Y-4.1694
M16
G05
T0
M30
