%TF.GenerationSoftware,KiCad,Pcbnew,7.0.6*%
%TF.CreationDate,2023-08-31T21:11:47+05:30*%
%TF.ProjectId,bread board,62726561-6420-4626-9f61-72642e6b6963,rev?*%
%TF.SameCoordinates,Original*%
%TF.FileFunction,Copper,L1,Top*%
%TF.FilePolarity,Positive*%
%FSLAX46Y46*%
G04 Gerber Fmt 4.6, Leading zero omitted, Abs format (unit mm)*
G04 Created by KiCad (PCBNEW 7.0.6) date 2023-08-31 21:11:47*
%MOMM*%
%LPD*%
G01*
G04 APERTURE LIST*
G04 Aperture macros list*
%AMRoundRect*
0 Rectangle with rounded corners*
0 $1 Rounding radius*
0 $2 $3 $4 $5 $6 $7 $8 $9 X,Y pos of 4 corners*
0 Add a 4 corners polygon primitive as box body*
4,1,4,$2,$3,$4,$5,$6,$7,$8,$9,$2,$3,0*
0 Add four circle primitives for the rounded corners*
1,1,$1+$1,$2,$3*
1,1,$1+$1,$4,$5*
1,1,$1+$1,$6,$7*
1,1,$1+$1,$8,$9*
0 Add four rect primitives between the rounded corners*
20,1,$1+$1,$2,$3,$4,$5,0*
20,1,$1+$1,$4,$5,$6,$7,0*
20,1,$1+$1,$6,$7,$8,$9,0*
20,1,$1+$1,$8,$9,$2,$3,0*%
G04 Aperture macros list end*
%TA.AperFunction,ComponentPad*%
%ADD10C,1.400000*%
%TD*%
%TA.AperFunction,ComponentPad*%
%ADD11O,1.400000X1.400000*%
%TD*%
%TA.AperFunction,ComponentPad*%
%ADD12R,1.700000X1.700000*%
%TD*%
%TA.AperFunction,ComponentPad*%
%ADD13O,1.700000X1.700000*%
%TD*%
%TA.AperFunction,ComponentPad*%
%ADD14C,1.600000*%
%TD*%
%TA.AperFunction,ComponentPad*%
%ADD15R,1.800000X1.800000*%
%TD*%
%TA.AperFunction,ComponentPad*%
%ADD16C,1.800000*%
%TD*%
%TA.AperFunction,SMDPad,CuDef*%
%ADD17R,2.440000X1.120000*%
%TD*%
%TA.AperFunction,ComponentPad*%
%ADD18R,1.905000X2.000000*%
%TD*%
%TA.AperFunction,ComponentPad*%
%ADD19O,1.905000X2.000000*%
%TD*%
%TA.AperFunction,ComponentPad*%
%ADD20R,3.500000X3.500000*%
%TD*%
%TA.AperFunction,ComponentPad*%
%ADD21RoundRect,0.750000X-0.750000X-1.000000X0.750000X-1.000000X0.750000X1.000000X-0.750000X1.000000X0*%
%TD*%
%TA.AperFunction,ComponentPad*%
%ADD22RoundRect,0.875000X-0.875000X-0.875000X0.875000X-0.875000X0.875000X0.875000X-0.875000X0.875000X0*%
%TD*%
%TA.AperFunction,ComponentPad*%
%ADD23R,3.000000X3.000000*%
%TD*%
%TA.AperFunction,ComponentPad*%
%ADD24C,3.000000*%
%TD*%
%TA.AperFunction,Conductor*%
%ADD25C,0.250000*%
%TD*%
G04 APERTURE END LIST*
D10*
%TO.P,R1,1*%
%TO.N,Net-(R1-Pad1)*%
X111488000Y-99060000D03*
D11*
%TO.P,R1,2*%
%TO.N,/3.3v*%
X119108000Y-99060000D03*
%TD*%
D12*
%TO.P,J3,1,Pin_1*%
%TO.N,/3.3v*%
X103124000Y-81026000D03*
D13*
%TO.P,J3,2,Pin_2*%
%TO.N,/PWR_output*%
X105664000Y-81026000D03*
%TO.P,J3,3,Pin_3*%
%TO.N,/5V*%
X108204000Y-81026000D03*
%TD*%
D14*
%TO.P,C2,1*%
%TO.N,/5V*%
X104434000Y-86106000D03*
%TO.P,C2,2*%
%TO.N,GND*%
X106934000Y-86106000D03*
%TD*%
%TO.P,C1,1*%
%TO.N,/12V*%
X98044000Y-85852000D03*
%TO.P,C1,2*%
%TO.N,GND*%
X100544000Y-85852000D03*
%TD*%
D15*
%TO.P,D1,1,K*%
%TO.N,GND*%
X115558000Y-106172000D03*
D16*
%TO.P,D1,2,A*%
%TO.N,Net-(D1-A)*%
X118098000Y-106172000D03*
%TD*%
D17*
%TO.P,SW1,1,A*%
%TO.N,/12V*%
X109953000Y-92964000D03*
%TO.P,SW1,2,B*%
%TO.N,/PWR_input*%
X118563000Y-92964000D03*
%TD*%
D12*
%TO.P,J7,1,Pin_1*%
%TO.N,/3.3v*%
X101854000Y-130556000D03*
D13*
%TO.P,J7,2,Pin_2*%
%TO.N,/PWR_output*%
X104394000Y-130556000D03*
%TO.P,J7,3,Pin_3*%
%TO.N,/5V*%
X106934000Y-130556000D03*
%TD*%
D10*
%TO.P,R2,1*%
%TO.N,Net-(D1-A)*%
X111488000Y-120396000D03*
D11*
%TO.P,R2,2*%
%TO.N,/12V*%
X119108000Y-120396000D03*
%TD*%
D18*
%TO.P,U2,1,ADJ*%
%TO.N,GND*%
X98298000Y-93726000D03*
D19*
%TO.P,U2,2,VO*%
%TO.N,/5V*%
X100838000Y-93726000D03*
%TO.P,U2,3,VI*%
%TO.N,/12V*%
X103378000Y-93726000D03*
%TD*%
D20*
%TO.P,J8,1*%
%TO.N,/PWR_input*%
X108870000Y-104902000D03*
D21*
%TO.P,J8,2*%
%TO.N,GND*%
X102870000Y-104902000D03*
D22*
%TO.P,J8,3*%
X105870000Y-109602000D03*
%TD*%
D18*
%TO.P,U1,1,VI*%
%TO.N,/12V*%
X97790000Y-116586000D03*
D19*
%TO.P,U1,2,GND*%
%TO.N,GND*%
X100330000Y-116586000D03*
%TO.P,U1,3,VO*%
%TO.N,/3.3v*%
X102870000Y-116586000D03*
%TD*%
D23*
%TO.P,J2,1,Pin_1*%
%TO.N,GND*%
X113792000Y-83226000D03*
D24*
%TO.P,J2,2,Pin_2*%
%TO.N,/PWR_output*%
X118872000Y-83226000D03*
%TD*%
D12*
%TO.P,J6,1,Pin_1*%
%TO.N,GND*%
X124968000Y-81026000D03*
D13*
%TO.P,J6,2,Pin_2*%
%TO.N,/PWR_output*%
X124968000Y-83566000D03*
%TD*%
D23*
%TO.P,J5,1,Pin_1*%
%TO.N,GND*%
X112268000Y-129540000D03*
D24*
%TO.P,J5,2,Pin_2*%
%TO.N,/PWR_output*%
X117348000Y-129540000D03*
%TD*%
D10*
%TO.P,R3,1*%
%TO.N,GND*%
X111488000Y-113538000D03*
D11*
%TO.P,R3,2*%
%TO.N,Net-(R1-Pad1)*%
X119108000Y-113538000D03*
%TD*%
D12*
%TO.P,J4,1,Pin_1*%
%TO.N,GND*%
X124968000Y-129286000D03*
D13*
%TO.P,J4,2,Pin_2*%
%TO.N,/PWR_output*%
X124968000Y-131826000D03*
%TD*%
D14*
%TO.P,C3,1*%
%TO.N,/3.3v*%
X102910000Y-123190000D03*
%TO.P,C3,2*%
%TO.N,GND*%
X105410000Y-123190000D03*
%TD*%
D25*
%TO.N,/12V*%
X104147500Y-128898896D02*
X109353104Y-128898896D01*
X109191000Y-93726000D02*
X109953000Y-92964000D01*
X103378000Y-93726000D02*
X109191000Y-93726000D01*
X97790000Y-116586000D02*
X97790000Y-128842000D01*
X98044000Y-88392000D02*
X103378000Y-93726000D01*
X103029000Y-130017396D02*
X104147500Y-128898896D01*
X100679000Y-131731000D02*
X103029000Y-131731000D01*
X103029000Y-131731000D02*
X103029000Y-130017396D01*
X117856000Y-120396000D02*
X119108000Y-120396000D01*
X109353104Y-128898896D02*
X117856000Y-120396000D01*
X97790000Y-128842000D02*
X100679000Y-131731000D01*
X98044000Y-85852000D02*
X98044000Y-88392000D01*
%TO.N,/5V*%
X108204000Y-81026000D02*
X104434000Y-84796000D01*
X104434000Y-84796000D02*
X104434000Y-86106000D01*
%TO.N,/3.3v*%
X111063431Y-98035000D02*
X106172000Y-102926431D01*
X104299000Y-79851000D02*
X108690701Y-79851000D01*
X106172000Y-106680000D02*
X106469000Y-106977000D01*
X110998000Y-108458000D02*
X102870000Y-116586000D01*
X102870000Y-116586000D02*
X102870000Y-129540000D01*
X109517000Y-106977000D02*
X110998000Y-108458000D01*
X106469000Y-106977000D02*
X109517000Y-106977000D01*
X119108000Y-99060000D02*
X119108000Y-100348000D01*
X111760000Y-98035000D02*
X111063431Y-98035000D01*
X119108000Y-100348000D02*
X110998000Y-108458000D01*
X108690701Y-79851000D02*
X111760000Y-82920299D01*
X111760000Y-82920299D02*
X111760000Y-98035000D01*
X106172000Y-102926431D02*
X106172000Y-106680000D01*
X103124000Y-81026000D02*
X104299000Y-79851000D01*
X102870000Y-129540000D02*
X101854000Y-130556000D01*
%TO.N,Net-(D1-A)*%
X118098000Y-108377569D02*
X118098000Y-106172000D01*
X111488000Y-120396000D02*
X111488000Y-114987569D01*
X111488000Y-114987569D02*
X118098000Y-108377569D01*
%TO.N,/PWR_output*%
X104489000Y-82201000D02*
X101949000Y-82201000D01*
X120396000Y-126492000D02*
X120396000Y-126238000D01*
X105664000Y-81026000D02*
X104489000Y-82201000D01*
X120396000Y-127254000D02*
X120396000Y-126238000D01*
X115157000Y-131731000D02*
X105569000Y-131731000D01*
X117348000Y-129540000D02*
X120396000Y-126492000D01*
X101949000Y-79851000D02*
X102399000Y-79401000D01*
X105569000Y-131731000D02*
X104394000Y-130556000D01*
X101949000Y-82201000D02*
X101949000Y-79851000D01*
X120396000Y-126238000D02*
X120396000Y-84750000D01*
X124968000Y-83566000D02*
X119212000Y-83566000D01*
X102399000Y-79401000D02*
X115047000Y-79401000D01*
X117348000Y-129540000D02*
X115157000Y-131731000D01*
X119212000Y-83566000D02*
X118872000Y-83226000D01*
X120396000Y-84750000D02*
X118872000Y-83226000D01*
X124968000Y-131826000D02*
X120396000Y-127254000D01*
X115047000Y-79401000D02*
X118872000Y-83226000D01*
%TO.N,/PWR_input*%
X118563000Y-95209000D02*
X118563000Y-92964000D01*
X108870000Y-104902000D02*
X118563000Y-95209000D01*
%TD*%
M02*
