%TF.GenerationSoftware,KiCad,Pcbnew,7.0.6*%
%TF.CreationDate,2023-08-31T21:11:47+05:30*%
%TF.ProjectId,bread board,62726561-6420-4626-9f61-72642e6b6963,rev?*%
%TF.SameCoordinates,Original*%
%TF.FileFunction,Soldermask,Top*%
%TF.FilePolarity,Negative*%
%FSLAX46Y46*%
G04 Gerber Fmt 4.6, Leading zero omitted, Abs format (unit mm)*
G04 Created by KiCad (PCBNEW 7.0.6) date 2023-08-31 21:11:47*
%MOMM*%
%LPD*%
G01*
G04 APERTURE LIST*
G04 Aperture macros list*
%AMRoundRect*
0 Rectangle with rounded corners*
0 $1 Rounding radius*
0 $2 $3 $4 $5 $6 $7 $8 $9 X,Y pos of 4 corners*
0 Add a 4 corners polygon primitive as box body*
4,1,4,$2,$3,$4,$5,$6,$7,$8,$9,$2,$3,0*
0 Add four circle primitives for the rounded corners*
1,1,$1+$1,$2,$3*
1,1,$1+$1,$4,$5*
1,1,$1+$1,$6,$7*
1,1,$1+$1,$8,$9*
0 Add four rect primitives between the rounded corners*
20,1,$1+$1,$2,$3,$4,$5,0*
20,1,$1+$1,$4,$5,$6,$7,0*
20,1,$1+$1,$6,$7,$8,$9,0*
20,1,$1+$1,$8,$9,$2,$3,0*%
G04 Aperture macros list end*
%ADD10C,1.400000*%
%ADD11O,1.400000X1.400000*%
%ADD12R,1.700000X1.700000*%
%ADD13O,1.700000X1.700000*%
%ADD14C,1.600000*%
%ADD15R,1.800000X1.800000*%
%ADD16C,1.800000*%
%ADD17R,2.440000X1.120000*%
%ADD18R,1.905000X2.000000*%
%ADD19O,1.905000X2.000000*%
%ADD20R,3.500000X3.500000*%
%ADD21RoundRect,0.750000X-0.750000X-1.000000X0.750000X-1.000000X0.750000X1.000000X-0.750000X1.000000X0*%
%ADD22RoundRect,0.875000X-0.875000X-0.875000X0.875000X-0.875000X0.875000X0.875000X-0.875000X0.875000X0*%
%ADD23R,3.000000X3.000000*%
%ADD24C,3.000000*%
G04 APERTURE END LIST*
D10*
%TO.C,R1*%
X111488000Y-99060000D03*
D11*
X119108000Y-99060000D03*
%TD*%
D12*
%TO.C,J3*%
X103124000Y-81026000D03*
D13*
X105664000Y-81026000D03*
X108204000Y-81026000D03*
%TD*%
D14*
%TO.C,C2*%
X104434000Y-86106000D03*
X106934000Y-86106000D03*
%TD*%
%TO.C,C1*%
X98044000Y-85852000D03*
X100544000Y-85852000D03*
%TD*%
D15*
%TO.C,D1*%
X115558000Y-106172000D03*
D16*
X118098000Y-106172000D03*
%TD*%
D17*
%TO.C,SW1*%
X109953000Y-92964000D03*
X118563000Y-92964000D03*
%TD*%
D12*
%TO.C,J7*%
X101854000Y-130556000D03*
D13*
X104394000Y-130556000D03*
X106934000Y-130556000D03*
%TD*%
D10*
%TO.C,R2*%
X111488000Y-120396000D03*
D11*
X119108000Y-120396000D03*
%TD*%
D18*
%TO.C,U2*%
X98298000Y-93726000D03*
D19*
X100838000Y-93726000D03*
X103378000Y-93726000D03*
%TD*%
D20*
%TO.C,J8*%
X108870000Y-104902000D03*
D21*
X102870000Y-104902000D03*
D22*
X105870000Y-109602000D03*
%TD*%
D18*
%TO.C,U1*%
X97790000Y-116586000D03*
D19*
X100330000Y-116586000D03*
X102870000Y-116586000D03*
%TD*%
D23*
%TO.C,J2*%
X113792000Y-83226000D03*
D24*
X118872000Y-83226000D03*
%TD*%
D12*
%TO.C,J6*%
X124968000Y-81026000D03*
D13*
X124968000Y-83566000D03*
%TD*%
D23*
%TO.C,J5*%
X112268000Y-129540000D03*
D24*
X117348000Y-129540000D03*
%TD*%
D10*
%TO.C,R3*%
X111488000Y-113538000D03*
D11*
X119108000Y-113538000D03*
%TD*%
D12*
%TO.C,J4*%
X124968000Y-129286000D03*
D13*
X124968000Y-131826000D03*
%TD*%
D14*
%TO.C,C3*%
X102910000Y-123190000D03*
X105410000Y-123190000D03*
%TD*%
M02*
