%TF.GenerationSoftware,KiCad,Pcbnew,7.0.6*%
%TF.CreationDate,2023-08-31T21:11:47+05:30*%
%TF.ProjectId,bread board,62726561-6420-4626-9f61-72642e6b6963,rev?*%
%TF.SameCoordinates,Original*%
%TF.FileFunction,Legend,Top*%
%TF.FilePolarity,Positive*%
%FSLAX46Y46*%
G04 Gerber Fmt 4.6, Leading zero omitted, Abs format (unit mm)*
G04 Created by KiCad (PCBNEW 7.0.6) date 2023-08-31 21:11:47*
%MOMM*%
%LPD*%
G01*
G04 APERTURE LIST*
%ADD10C,0.100000*%
%ADD11C,0.200000*%
%ADD12C,0.075000*%
%ADD13C,0.300000*%
%ADD14C,0.150000*%
%ADD15C,0.120000*%
G04 APERTURE END LIST*
D10*
X105747371Y-117196496D02*
X105747371Y-116825068D01*
X105747371Y-116825068D02*
X105975942Y-117025068D01*
X105975942Y-117025068D02*
X105975942Y-116939353D01*
X105975942Y-116939353D02*
X106004514Y-116882211D01*
X106004514Y-116882211D02*
X106033085Y-116853639D01*
X106033085Y-116853639D02*
X106090228Y-116825068D01*
X106090228Y-116825068D02*
X106233085Y-116825068D01*
X106233085Y-116825068D02*
X106290228Y-116853639D01*
X106290228Y-116853639D02*
X106318800Y-116882211D01*
X106318800Y-116882211D02*
X106347371Y-116939353D01*
X106347371Y-116939353D02*
X106347371Y-117110782D01*
X106347371Y-117110782D02*
X106318800Y-117167925D01*
X106318800Y-117167925D02*
X106290228Y-117196496D01*
X106290228Y-116567924D02*
X106318800Y-116539353D01*
X106318800Y-116539353D02*
X106347371Y-116567924D01*
X106347371Y-116567924D02*
X106318800Y-116596496D01*
X106318800Y-116596496D02*
X106290228Y-116567924D01*
X106290228Y-116567924D02*
X106347371Y-116567924D01*
X105747371Y-116339353D02*
X105747371Y-115967925D01*
X105747371Y-115967925D02*
X105975942Y-116167925D01*
X105975942Y-116167925D02*
X105975942Y-116082210D01*
X105975942Y-116082210D02*
X106004514Y-116025068D01*
X106004514Y-116025068D02*
X106033085Y-115996496D01*
X106033085Y-115996496D02*
X106090228Y-115967925D01*
X106090228Y-115967925D02*
X106233085Y-115967925D01*
X106233085Y-115967925D02*
X106290228Y-115996496D01*
X106290228Y-115996496D02*
X106318800Y-116025068D01*
X106318800Y-116025068D02*
X106347371Y-116082210D01*
X106347371Y-116082210D02*
X106347371Y-116253639D01*
X106347371Y-116253639D02*
X106318800Y-116310782D01*
X106318800Y-116310782D02*
X106290228Y-116339353D01*
X105747371Y-115796496D02*
X106347371Y-115596496D01*
X106347371Y-115596496D02*
X105747371Y-115396496D01*
X97457371Y-112507068D02*
X97457371Y-112849925D01*
X97457371Y-112678496D02*
X96857371Y-112678496D01*
X96857371Y-112678496D02*
X96943085Y-112735639D01*
X96943085Y-112735639D02*
X97000228Y-112792782D01*
X97000228Y-112792782D02*
X97028800Y-112849925D01*
X96914514Y-112278496D02*
X96885942Y-112249924D01*
X96885942Y-112249924D02*
X96857371Y-112192782D01*
X96857371Y-112192782D02*
X96857371Y-112049924D01*
X96857371Y-112049924D02*
X96885942Y-111992782D01*
X96885942Y-111992782D02*
X96914514Y-111964210D01*
X96914514Y-111964210D02*
X96971657Y-111935639D01*
X96971657Y-111935639D02*
X97028800Y-111935639D01*
X97028800Y-111935639D02*
X97114514Y-111964210D01*
X97114514Y-111964210D02*
X97457371Y-112307067D01*
X97457371Y-112307067D02*
X97457371Y-111935639D01*
X96857371Y-111764210D02*
X97457371Y-111564210D01*
X97457371Y-111564210D02*
X96857371Y-111364210D01*
X103646931Y-89837371D02*
X103304074Y-89837371D01*
X103475503Y-89837371D02*
X103475503Y-89237371D01*
X103475503Y-89237371D02*
X103418360Y-89323085D01*
X103418360Y-89323085D02*
X103361217Y-89380228D01*
X103361217Y-89380228D02*
X103304074Y-89408800D01*
X103875503Y-89294514D02*
X103904075Y-89265942D01*
X103904075Y-89265942D02*
X103961218Y-89237371D01*
X103961218Y-89237371D02*
X104104075Y-89237371D01*
X104104075Y-89237371D02*
X104161218Y-89265942D01*
X104161218Y-89265942D02*
X104189789Y-89294514D01*
X104189789Y-89294514D02*
X104218360Y-89351657D01*
X104218360Y-89351657D02*
X104218360Y-89408800D01*
X104218360Y-89408800D02*
X104189789Y-89494514D01*
X104189789Y-89494514D02*
X103846932Y-89837371D01*
X103846932Y-89837371D02*
X104218360Y-89837371D01*
X104389789Y-89237371D02*
X104589789Y-89837371D01*
X104589789Y-89837371D02*
X104789789Y-89237371D01*
X116994646Y-89266895D02*
X117147027Y-89266895D01*
X117147027Y-89266895D02*
X117223217Y-89304990D01*
X117223217Y-89304990D02*
X117299408Y-89381180D01*
X117299408Y-89381180D02*
X117337503Y-89533561D01*
X117337503Y-89533561D02*
X117337503Y-89800228D01*
X117337503Y-89800228D02*
X117299408Y-89952609D01*
X117299408Y-89952609D02*
X117223217Y-90028800D01*
X117223217Y-90028800D02*
X117147027Y-90066895D01*
X117147027Y-90066895D02*
X116994646Y-90066895D01*
X116994646Y-90066895D02*
X116918455Y-90028800D01*
X116918455Y-90028800D02*
X116842265Y-89952609D01*
X116842265Y-89952609D02*
X116804169Y-89800228D01*
X116804169Y-89800228D02*
X116804169Y-89533561D01*
X116804169Y-89533561D02*
X116842265Y-89381180D01*
X116842265Y-89381180D02*
X116918455Y-89304990D01*
X116918455Y-89304990D02*
X116994646Y-89266895D01*
X117680360Y-90066895D02*
X117680360Y-89266895D01*
X117680360Y-89266895D02*
X118137503Y-90066895D01*
X118137503Y-90066895D02*
X118137503Y-89266895D01*
X109628646Y-89266895D02*
X109781027Y-89266895D01*
X109781027Y-89266895D02*
X109857217Y-89304990D01*
X109857217Y-89304990D02*
X109933408Y-89381180D01*
X109933408Y-89381180D02*
X109971503Y-89533561D01*
X109971503Y-89533561D02*
X109971503Y-89800228D01*
X109971503Y-89800228D02*
X109933408Y-89952609D01*
X109933408Y-89952609D02*
X109857217Y-90028800D01*
X109857217Y-90028800D02*
X109781027Y-90066895D01*
X109781027Y-90066895D02*
X109628646Y-90066895D01*
X109628646Y-90066895D02*
X109552455Y-90028800D01*
X109552455Y-90028800D02*
X109476265Y-89952609D01*
X109476265Y-89952609D02*
X109438169Y-89800228D01*
X109438169Y-89800228D02*
X109438169Y-89533561D01*
X109438169Y-89533561D02*
X109476265Y-89381180D01*
X109476265Y-89381180D02*
X109552455Y-89304990D01*
X109552455Y-89304990D02*
X109628646Y-89266895D01*
X110581026Y-89647847D02*
X110314360Y-89647847D01*
X110314360Y-90066895D02*
X110314360Y-89266895D01*
X110314360Y-89266895D02*
X110695312Y-89266895D01*
X111266740Y-89647847D02*
X111000074Y-89647847D01*
X111000074Y-90066895D02*
X111000074Y-89266895D01*
X111000074Y-89266895D02*
X111381026Y-89266895D01*
D11*
X99588435Y-127391219D02*
X100207482Y-127391219D01*
X100207482Y-127391219D02*
X99874149Y-127772171D01*
X99874149Y-127772171D02*
X100017006Y-127772171D01*
X100017006Y-127772171D02*
X100112244Y-127819790D01*
X100112244Y-127819790D02*
X100159863Y-127867409D01*
X100159863Y-127867409D02*
X100207482Y-127962647D01*
X100207482Y-127962647D02*
X100207482Y-128200742D01*
X100207482Y-128200742D02*
X100159863Y-128295980D01*
X100159863Y-128295980D02*
X100112244Y-128343600D01*
X100112244Y-128343600D02*
X100017006Y-128391219D01*
X100017006Y-128391219D02*
X99731292Y-128391219D01*
X99731292Y-128391219D02*
X99636054Y-128343600D01*
X99636054Y-128343600D02*
X99588435Y-128295980D01*
X100636054Y-128295980D02*
X100683673Y-128343600D01*
X100683673Y-128343600D02*
X100636054Y-128391219D01*
X100636054Y-128391219D02*
X100588435Y-128343600D01*
X100588435Y-128343600D02*
X100636054Y-128295980D01*
X100636054Y-128295980D02*
X100636054Y-128391219D01*
X101017006Y-127391219D02*
X101636053Y-127391219D01*
X101636053Y-127391219D02*
X101302720Y-127772171D01*
X101302720Y-127772171D02*
X101445577Y-127772171D01*
X101445577Y-127772171D02*
X101540815Y-127819790D01*
X101540815Y-127819790D02*
X101588434Y-127867409D01*
X101588434Y-127867409D02*
X101636053Y-127962647D01*
X101636053Y-127962647D02*
X101636053Y-128200742D01*
X101636053Y-128200742D02*
X101588434Y-128295980D01*
X101588434Y-128295980D02*
X101540815Y-128343600D01*
X101540815Y-128343600D02*
X101445577Y-128391219D01*
X101445577Y-128391219D02*
X101159863Y-128391219D01*
X101159863Y-128391219D02*
X101064625Y-128343600D01*
X101064625Y-128343600D02*
X101017006Y-128295980D01*
X101921768Y-127391219D02*
X102255101Y-128391219D01*
X102255101Y-128391219D02*
X102588434Y-127391219D01*
D12*
X99735385Y-81427515D02*
X99735385Y-81179896D01*
X99735385Y-81179896D02*
X99849671Y-81313229D01*
X99849671Y-81313229D02*
X99849671Y-81256086D01*
X99849671Y-81256086D02*
X99863957Y-81217991D01*
X99863957Y-81217991D02*
X99878242Y-81198943D01*
X99878242Y-81198943D02*
X99906814Y-81179896D01*
X99906814Y-81179896D02*
X99978242Y-81179896D01*
X99978242Y-81179896D02*
X100006814Y-81198943D01*
X100006814Y-81198943D02*
X100021100Y-81217991D01*
X100021100Y-81217991D02*
X100035385Y-81256086D01*
X100035385Y-81256086D02*
X100035385Y-81370372D01*
X100035385Y-81370372D02*
X100021100Y-81408467D01*
X100021100Y-81408467D02*
X100006814Y-81427515D01*
X100006814Y-81008467D02*
X100021100Y-80989420D01*
X100021100Y-80989420D02*
X100035385Y-81008467D01*
X100035385Y-81008467D02*
X100021100Y-81027515D01*
X100021100Y-81027515D02*
X100006814Y-81008467D01*
X100006814Y-81008467D02*
X100035385Y-81008467D01*
X99735385Y-80856087D02*
X99735385Y-80608468D01*
X99735385Y-80608468D02*
X99849671Y-80741801D01*
X99849671Y-80741801D02*
X99849671Y-80684658D01*
X99849671Y-80684658D02*
X99863957Y-80646563D01*
X99863957Y-80646563D02*
X99878242Y-80627515D01*
X99878242Y-80627515D02*
X99906814Y-80608468D01*
X99906814Y-80608468D02*
X99978242Y-80608468D01*
X99978242Y-80608468D02*
X100006814Y-80627515D01*
X100006814Y-80627515D02*
X100021100Y-80646563D01*
X100021100Y-80646563D02*
X100035385Y-80684658D01*
X100035385Y-80684658D02*
X100035385Y-80798944D01*
X100035385Y-80798944D02*
X100021100Y-80837039D01*
X100021100Y-80837039D02*
X100006814Y-80856087D01*
X99735385Y-80494182D02*
X100035385Y-80360849D01*
X100035385Y-80360849D02*
X99735385Y-80227516D01*
D11*
X102953863Y-83703219D02*
X102477673Y-83703219D01*
X102477673Y-83703219D02*
X102430054Y-84179409D01*
X102430054Y-84179409D02*
X102477673Y-84131790D01*
X102477673Y-84131790D02*
X102572911Y-84084171D01*
X102572911Y-84084171D02*
X102811006Y-84084171D01*
X102811006Y-84084171D02*
X102906244Y-84131790D01*
X102906244Y-84131790D02*
X102953863Y-84179409D01*
X102953863Y-84179409D02*
X103001482Y-84274647D01*
X103001482Y-84274647D02*
X103001482Y-84512742D01*
X103001482Y-84512742D02*
X102953863Y-84607980D01*
X102953863Y-84607980D02*
X102906244Y-84655600D01*
X102906244Y-84655600D02*
X102811006Y-84703219D01*
X102811006Y-84703219D02*
X102572911Y-84703219D01*
X102572911Y-84703219D02*
X102477673Y-84655600D01*
X102477673Y-84655600D02*
X102430054Y-84607980D01*
X103287197Y-83703219D02*
X103620530Y-84703219D01*
X103620530Y-84703219D02*
X103953863Y-83703219D01*
D13*
X106678796Y-126824828D02*
X105964510Y-126824828D01*
X105964510Y-126824828D02*
X105893082Y-127539114D01*
X105893082Y-127539114D02*
X105964510Y-127467685D01*
X105964510Y-127467685D02*
X106107368Y-127396257D01*
X106107368Y-127396257D02*
X106464510Y-127396257D01*
X106464510Y-127396257D02*
X106607368Y-127467685D01*
X106607368Y-127467685D02*
X106678796Y-127539114D01*
X106678796Y-127539114D02*
X106750225Y-127681971D01*
X106750225Y-127681971D02*
X106750225Y-128039114D01*
X106750225Y-128039114D02*
X106678796Y-128181971D01*
X106678796Y-128181971D02*
X106607368Y-128253400D01*
X106607368Y-128253400D02*
X106464510Y-128324828D01*
X106464510Y-128324828D02*
X106107368Y-128324828D01*
X106107368Y-128324828D02*
X105964510Y-128253400D01*
X105964510Y-128253400D02*
X105893082Y-128181971D01*
X107178796Y-126824828D02*
X107678796Y-128324828D01*
X107678796Y-128324828D02*
X108178796Y-126824828D01*
D11*
X121596838Y-131694517D02*
X121549219Y-131789755D01*
X121549219Y-131789755D02*
X121549219Y-131932612D01*
X121549219Y-131932612D02*
X121596838Y-132075469D01*
X121596838Y-132075469D02*
X121692076Y-132170707D01*
X121692076Y-132170707D02*
X121787314Y-132218326D01*
X121787314Y-132218326D02*
X121977790Y-132265945D01*
X121977790Y-132265945D02*
X122120647Y-132265945D01*
X122120647Y-132265945D02*
X122311123Y-132218326D01*
X122311123Y-132218326D02*
X122406361Y-132170707D01*
X122406361Y-132170707D02*
X122501600Y-132075469D01*
X122501600Y-132075469D02*
X122549219Y-131932612D01*
X122549219Y-131932612D02*
X122549219Y-131837374D01*
X122549219Y-131837374D02*
X122501600Y-131694517D01*
X122501600Y-131694517D02*
X122453980Y-131646898D01*
X122453980Y-131646898D02*
X122120647Y-131646898D01*
X122120647Y-131646898D02*
X122120647Y-131837374D01*
X122549219Y-131218326D02*
X121549219Y-131218326D01*
X121549219Y-131218326D02*
X122549219Y-130646898D01*
X122549219Y-130646898D02*
X121549219Y-130646898D01*
X122549219Y-130170707D02*
X121549219Y-130170707D01*
X121549219Y-130170707D02*
X121549219Y-129932612D01*
X121549219Y-129932612D02*
X121596838Y-129789755D01*
X121596838Y-129789755D02*
X121692076Y-129694517D01*
X121692076Y-129694517D02*
X121787314Y-129646898D01*
X121787314Y-129646898D02*
X121977790Y-129599279D01*
X121977790Y-129599279D02*
X122120647Y-129599279D01*
X122120647Y-129599279D02*
X122311123Y-129646898D01*
X122311123Y-129646898D02*
X122406361Y-129694517D01*
X122406361Y-129694517D02*
X122501600Y-129789755D01*
X122501600Y-129789755D02*
X122549219Y-129932612D01*
X122549219Y-129932612D02*
X122549219Y-130170707D01*
X110113482Y-123882838D02*
X110018244Y-123835219D01*
X110018244Y-123835219D02*
X109875387Y-123835219D01*
X109875387Y-123835219D02*
X109732530Y-123882838D01*
X109732530Y-123882838D02*
X109637292Y-123978076D01*
X109637292Y-123978076D02*
X109589673Y-124073314D01*
X109589673Y-124073314D02*
X109542054Y-124263790D01*
X109542054Y-124263790D02*
X109542054Y-124406647D01*
X109542054Y-124406647D02*
X109589673Y-124597123D01*
X109589673Y-124597123D02*
X109637292Y-124692361D01*
X109637292Y-124692361D02*
X109732530Y-124787600D01*
X109732530Y-124787600D02*
X109875387Y-124835219D01*
X109875387Y-124835219D02*
X109970625Y-124835219D01*
X109970625Y-124835219D02*
X110113482Y-124787600D01*
X110113482Y-124787600D02*
X110161101Y-124739980D01*
X110161101Y-124739980D02*
X110161101Y-124406647D01*
X110161101Y-124406647D02*
X109970625Y-124406647D01*
X110589673Y-124835219D02*
X110589673Y-123835219D01*
X110589673Y-123835219D02*
X111161101Y-124835219D01*
X111161101Y-124835219D02*
X111161101Y-123835219D01*
X111637292Y-124835219D02*
X111637292Y-123835219D01*
X111637292Y-123835219D02*
X111875387Y-123835219D01*
X111875387Y-123835219D02*
X112018244Y-123882838D01*
X112018244Y-123882838D02*
X112113482Y-123978076D01*
X112113482Y-123978076D02*
X112161101Y-124073314D01*
X112161101Y-124073314D02*
X112208720Y-124263790D01*
X112208720Y-124263790D02*
X112208720Y-124406647D01*
X112208720Y-124406647D02*
X112161101Y-124597123D01*
X112161101Y-124597123D02*
X112113482Y-124692361D01*
X112113482Y-124692361D02*
X112018244Y-124787600D01*
X112018244Y-124787600D02*
X111875387Y-124835219D01*
X111875387Y-124835219D02*
X111637292Y-124835219D01*
X105795482Y-120834838D02*
X105700244Y-120787219D01*
X105700244Y-120787219D02*
X105557387Y-120787219D01*
X105557387Y-120787219D02*
X105414530Y-120834838D01*
X105414530Y-120834838D02*
X105319292Y-120930076D01*
X105319292Y-120930076D02*
X105271673Y-121025314D01*
X105271673Y-121025314D02*
X105224054Y-121215790D01*
X105224054Y-121215790D02*
X105224054Y-121358647D01*
X105224054Y-121358647D02*
X105271673Y-121549123D01*
X105271673Y-121549123D02*
X105319292Y-121644361D01*
X105319292Y-121644361D02*
X105414530Y-121739600D01*
X105414530Y-121739600D02*
X105557387Y-121787219D01*
X105557387Y-121787219D02*
X105652625Y-121787219D01*
X105652625Y-121787219D02*
X105795482Y-121739600D01*
X105795482Y-121739600D02*
X105843101Y-121691980D01*
X105843101Y-121691980D02*
X105843101Y-121358647D01*
X105843101Y-121358647D02*
X105652625Y-121358647D01*
X106271673Y-121787219D02*
X106271673Y-120787219D01*
X106271673Y-120787219D02*
X106843101Y-121787219D01*
X106843101Y-121787219D02*
X106843101Y-120787219D01*
X107319292Y-121787219D02*
X107319292Y-120787219D01*
X107319292Y-120787219D02*
X107557387Y-120787219D01*
X107557387Y-120787219D02*
X107700244Y-120834838D01*
X107700244Y-120834838D02*
X107795482Y-120930076D01*
X107795482Y-120930076D02*
X107843101Y-121025314D01*
X107843101Y-121025314D02*
X107890720Y-121215790D01*
X107890720Y-121215790D02*
X107890720Y-121358647D01*
X107890720Y-121358647D02*
X107843101Y-121549123D01*
X107843101Y-121549123D02*
X107795482Y-121644361D01*
X107795482Y-121644361D02*
X107700244Y-121739600D01*
X107700244Y-121739600D02*
X107557387Y-121787219D01*
X107557387Y-121787219D02*
X107319292Y-121787219D01*
X110621482Y-111182838D02*
X110526244Y-111135219D01*
X110526244Y-111135219D02*
X110383387Y-111135219D01*
X110383387Y-111135219D02*
X110240530Y-111182838D01*
X110240530Y-111182838D02*
X110145292Y-111278076D01*
X110145292Y-111278076D02*
X110097673Y-111373314D01*
X110097673Y-111373314D02*
X110050054Y-111563790D01*
X110050054Y-111563790D02*
X110050054Y-111706647D01*
X110050054Y-111706647D02*
X110097673Y-111897123D01*
X110097673Y-111897123D02*
X110145292Y-111992361D01*
X110145292Y-111992361D02*
X110240530Y-112087600D01*
X110240530Y-112087600D02*
X110383387Y-112135219D01*
X110383387Y-112135219D02*
X110478625Y-112135219D01*
X110478625Y-112135219D02*
X110621482Y-112087600D01*
X110621482Y-112087600D02*
X110669101Y-112039980D01*
X110669101Y-112039980D02*
X110669101Y-111706647D01*
X110669101Y-111706647D02*
X110478625Y-111706647D01*
X111097673Y-112135219D02*
X111097673Y-111135219D01*
X111097673Y-111135219D02*
X111669101Y-112135219D01*
X111669101Y-112135219D02*
X111669101Y-111135219D01*
X112145292Y-112135219D02*
X112145292Y-111135219D01*
X112145292Y-111135219D02*
X112383387Y-111135219D01*
X112383387Y-111135219D02*
X112526244Y-111182838D01*
X112526244Y-111182838D02*
X112621482Y-111278076D01*
X112621482Y-111278076D02*
X112669101Y-111373314D01*
X112669101Y-111373314D02*
X112716720Y-111563790D01*
X112716720Y-111563790D02*
X112716720Y-111706647D01*
X112716720Y-111706647D02*
X112669101Y-111897123D01*
X112669101Y-111897123D02*
X112621482Y-111992361D01*
X112621482Y-111992361D02*
X112526244Y-112087600D01*
X112526244Y-112087600D02*
X112383387Y-112135219D01*
X112383387Y-112135219D02*
X112145292Y-112135219D01*
X104017482Y-111944838D02*
X103922244Y-111897219D01*
X103922244Y-111897219D02*
X103779387Y-111897219D01*
X103779387Y-111897219D02*
X103636530Y-111944838D01*
X103636530Y-111944838D02*
X103541292Y-112040076D01*
X103541292Y-112040076D02*
X103493673Y-112135314D01*
X103493673Y-112135314D02*
X103446054Y-112325790D01*
X103446054Y-112325790D02*
X103446054Y-112468647D01*
X103446054Y-112468647D02*
X103493673Y-112659123D01*
X103493673Y-112659123D02*
X103541292Y-112754361D01*
X103541292Y-112754361D02*
X103636530Y-112849600D01*
X103636530Y-112849600D02*
X103779387Y-112897219D01*
X103779387Y-112897219D02*
X103874625Y-112897219D01*
X103874625Y-112897219D02*
X104017482Y-112849600D01*
X104017482Y-112849600D02*
X104065101Y-112801980D01*
X104065101Y-112801980D02*
X104065101Y-112468647D01*
X104065101Y-112468647D02*
X103874625Y-112468647D01*
X104493673Y-112897219D02*
X104493673Y-111897219D01*
X104493673Y-111897219D02*
X105065101Y-112897219D01*
X105065101Y-112897219D02*
X105065101Y-111897219D01*
X105541292Y-112897219D02*
X105541292Y-111897219D01*
X105541292Y-111897219D02*
X105779387Y-111897219D01*
X105779387Y-111897219D02*
X105922244Y-111944838D01*
X105922244Y-111944838D02*
X106017482Y-112040076D01*
X106017482Y-112040076D02*
X106065101Y-112135314D01*
X106065101Y-112135314D02*
X106112720Y-112325790D01*
X106112720Y-112325790D02*
X106112720Y-112468647D01*
X106112720Y-112468647D02*
X106065101Y-112659123D01*
X106065101Y-112659123D02*
X106017482Y-112754361D01*
X106017482Y-112754361D02*
X105922244Y-112849600D01*
X105922244Y-112849600D02*
X105779387Y-112897219D01*
X105779387Y-112897219D02*
X105541292Y-112897219D01*
X99498838Y-105532517D02*
X99451219Y-105627755D01*
X99451219Y-105627755D02*
X99451219Y-105770612D01*
X99451219Y-105770612D02*
X99498838Y-105913469D01*
X99498838Y-105913469D02*
X99594076Y-106008707D01*
X99594076Y-106008707D02*
X99689314Y-106056326D01*
X99689314Y-106056326D02*
X99879790Y-106103945D01*
X99879790Y-106103945D02*
X100022647Y-106103945D01*
X100022647Y-106103945D02*
X100213123Y-106056326D01*
X100213123Y-106056326D02*
X100308361Y-106008707D01*
X100308361Y-106008707D02*
X100403600Y-105913469D01*
X100403600Y-105913469D02*
X100451219Y-105770612D01*
X100451219Y-105770612D02*
X100451219Y-105675374D01*
X100451219Y-105675374D02*
X100403600Y-105532517D01*
X100403600Y-105532517D02*
X100355980Y-105484898D01*
X100355980Y-105484898D02*
X100022647Y-105484898D01*
X100022647Y-105484898D02*
X100022647Y-105675374D01*
X100451219Y-105056326D02*
X99451219Y-105056326D01*
X99451219Y-105056326D02*
X100451219Y-104484898D01*
X100451219Y-104484898D02*
X99451219Y-104484898D01*
X100451219Y-104008707D02*
X99451219Y-104008707D01*
X99451219Y-104008707D02*
X99451219Y-103770612D01*
X99451219Y-103770612D02*
X99498838Y-103627755D01*
X99498838Y-103627755D02*
X99594076Y-103532517D01*
X99594076Y-103532517D02*
X99689314Y-103484898D01*
X99689314Y-103484898D02*
X99879790Y-103437279D01*
X99879790Y-103437279D02*
X100022647Y-103437279D01*
X100022647Y-103437279D02*
X100213123Y-103484898D01*
X100213123Y-103484898D02*
X100308361Y-103532517D01*
X100308361Y-103532517D02*
X100403600Y-103627755D01*
X100403600Y-103627755D02*
X100451219Y-103770612D01*
X100451219Y-103770612D02*
X100451219Y-104008707D01*
X96397482Y-89084838D02*
X96302244Y-89037219D01*
X96302244Y-89037219D02*
X96159387Y-89037219D01*
X96159387Y-89037219D02*
X96016530Y-89084838D01*
X96016530Y-89084838D02*
X95921292Y-89180076D01*
X95921292Y-89180076D02*
X95873673Y-89275314D01*
X95873673Y-89275314D02*
X95826054Y-89465790D01*
X95826054Y-89465790D02*
X95826054Y-89608647D01*
X95826054Y-89608647D02*
X95873673Y-89799123D01*
X95873673Y-89799123D02*
X95921292Y-89894361D01*
X95921292Y-89894361D02*
X96016530Y-89989600D01*
X96016530Y-89989600D02*
X96159387Y-90037219D01*
X96159387Y-90037219D02*
X96254625Y-90037219D01*
X96254625Y-90037219D02*
X96397482Y-89989600D01*
X96397482Y-89989600D02*
X96445101Y-89941980D01*
X96445101Y-89941980D02*
X96445101Y-89608647D01*
X96445101Y-89608647D02*
X96254625Y-89608647D01*
X96873673Y-90037219D02*
X96873673Y-89037219D01*
X96873673Y-89037219D02*
X97445101Y-90037219D01*
X97445101Y-90037219D02*
X97445101Y-89037219D01*
X97921292Y-90037219D02*
X97921292Y-89037219D01*
X97921292Y-89037219D02*
X98159387Y-89037219D01*
X98159387Y-89037219D02*
X98302244Y-89084838D01*
X98302244Y-89084838D02*
X98397482Y-89180076D01*
X98397482Y-89180076D02*
X98445101Y-89275314D01*
X98445101Y-89275314D02*
X98492720Y-89465790D01*
X98492720Y-89465790D02*
X98492720Y-89608647D01*
X98492720Y-89608647D02*
X98445101Y-89799123D01*
X98445101Y-89799123D02*
X98397482Y-89894361D01*
X98397482Y-89894361D02*
X98302244Y-89989600D01*
X98302244Y-89989600D02*
X98159387Y-90037219D01*
X98159387Y-90037219D02*
X97921292Y-90037219D01*
X122104838Y-82164517D02*
X122057219Y-82259755D01*
X122057219Y-82259755D02*
X122057219Y-82402612D01*
X122057219Y-82402612D02*
X122104838Y-82545469D01*
X122104838Y-82545469D02*
X122200076Y-82640707D01*
X122200076Y-82640707D02*
X122295314Y-82688326D01*
X122295314Y-82688326D02*
X122485790Y-82735945D01*
X122485790Y-82735945D02*
X122628647Y-82735945D01*
X122628647Y-82735945D02*
X122819123Y-82688326D01*
X122819123Y-82688326D02*
X122914361Y-82640707D01*
X122914361Y-82640707D02*
X123009600Y-82545469D01*
X123009600Y-82545469D02*
X123057219Y-82402612D01*
X123057219Y-82402612D02*
X123057219Y-82307374D01*
X123057219Y-82307374D02*
X123009600Y-82164517D01*
X123009600Y-82164517D02*
X122961980Y-82116898D01*
X122961980Y-82116898D02*
X122628647Y-82116898D01*
X122628647Y-82116898D02*
X122628647Y-82307374D01*
X123057219Y-81688326D02*
X122057219Y-81688326D01*
X122057219Y-81688326D02*
X123057219Y-81116898D01*
X123057219Y-81116898D02*
X122057219Y-81116898D01*
X123057219Y-80640707D02*
X122057219Y-80640707D01*
X122057219Y-80640707D02*
X122057219Y-80402612D01*
X122057219Y-80402612D02*
X122104838Y-80259755D01*
X122104838Y-80259755D02*
X122200076Y-80164517D01*
X122200076Y-80164517D02*
X122295314Y-80116898D01*
X122295314Y-80116898D02*
X122485790Y-80069279D01*
X122485790Y-80069279D02*
X122628647Y-80069279D01*
X122628647Y-80069279D02*
X122819123Y-80116898D01*
X122819123Y-80116898D02*
X122914361Y-80164517D01*
X122914361Y-80164517D02*
X123009600Y-80259755D01*
X123009600Y-80259755D02*
X123057219Y-80402612D01*
X123057219Y-80402612D02*
X123057219Y-80640707D01*
X109850707Y-87560838D02*
X109755469Y-87513219D01*
X109755469Y-87513219D02*
X109612612Y-87513219D01*
X109612612Y-87513219D02*
X109469755Y-87560838D01*
X109469755Y-87560838D02*
X109374517Y-87656076D01*
X109374517Y-87656076D02*
X109326898Y-87751314D01*
X109326898Y-87751314D02*
X109279279Y-87941790D01*
X109279279Y-87941790D02*
X109279279Y-88084647D01*
X109279279Y-88084647D02*
X109326898Y-88275123D01*
X109326898Y-88275123D02*
X109374517Y-88370361D01*
X109374517Y-88370361D02*
X109469755Y-88465600D01*
X109469755Y-88465600D02*
X109612612Y-88513219D01*
X109612612Y-88513219D02*
X109707850Y-88513219D01*
X109707850Y-88513219D02*
X109850707Y-88465600D01*
X109850707Y-88465600D02*
X109898326Y-88417980D01*
X109898326Y-88417980D02*
X109898326Y-88084647D01*
X109898326Y-88084647D02*
X109707850Y-88084647D01*
X110326898Y-88513219D02*
X110326898Y-87513219D01*
X110326898Y-87513219D02*
X110898326Y-88513219D01*
X110898326Y-88513219D02*
X110898326Y-87513219D01*
X111374517Y-88513219D02*
X111374517Y-87513219D01*
X111374517Y-87513219D02*
X111612612Y-87513219D01*
X111612612Y-87513219D02*
X111755469Y-87560838D01*
X111755469Y-87560838D02*
X111850707Y-87656076D01*
X111850707Y-87656076D02*
X111898326Y-87751314D01*
X111898326Y-87751314D02*
X111945945Y-87941790D01*
X111945945Y-87941790D02*
X111945945Y-88084647D01*
X111945945Y-88084647D02*
X111898326Y-88275123D01*
X111898326Y-88275123D02*
X111850707Y-88370361D01*
X111850707Y-88370361D02*
X111755469Y-88465600D01*
X111755469Y-88465600D02*
X111612612Y-88513219D01*
X111612612Y-88513219D02*
X111374517Y-88513219D01*
D14*
X115181333Y-97456033D02*
X114948000Y-97122700D01*
X114781333Y-97456033D02*
X114781333Y-96756033D01*
X114781333Y-96756033D02*
X115048000Y-96756033D01*
X115048000Y-96756033D02*
X115114667Y-96789366D01*
X115114667Y-96789366D02*
X115148000Y-96822700D01*
X115148000Y-96822700D02*
X115181333Y-96889366D01*
X115181333Y-96889366D02*
X115181333Y-96989366D01*
X115181333Y-96989366D02*
X115148000Y-97056033D01*
X115148000Y-97056033D02*
X115114667Y-97089366D01*
X115114667Y-97089366D02*
X115048000Y-97122700D01*
X115048000Y-97122700D02*
X114781333Y-97122700D01*
X115848000Y-97456033D02*
X115448000Y-97456033D01*
X115648000Y-97456033D02*
X115648000Y-96756033D01*
X115648000Y-96756033D02*
X115581333Y-96856033D01*
X115581333Y-96856033D02*
X115514667Y-96922700D01*
X115514667Y-96922700D02*
X115448000Y-96956033D01*
X114398000Y-100596033D02*
X114831333Y-100596033D01*
X114831333Y-100596033D02*
X114598000Y-100862700D01*
X114598000Y-100862700D02*
X114698000Y-100862700D01*
X114698000Y-100862700D02*
X114764666Y-100896033D01*
X114764666Y-100896033D02*
X114798000Y-100929366D01*
X114798000Y-100929366D02*
X114831333Y-100996033D01*
X114831333Y-100996033D02*
X114831333Y-101162700D01*
X114831333Y-101162700D02*
X114798000Y-101229366D01*
X114798000Y-101229366D02*
X114764666Y-101262700D01*
X114764666Y-101262700D02*
X114698000Y-101296033D01*
X114698000Y-101296033D02*
X114498000Y-101296033D01*
X114498000Y-101296033D02*
X114431333Y-101262700D01*
X114431333Y-101262700D02*
X114398000Y-101229366D01*
X115064667Y-100596033D02*
X115498000Y-100596033D01*
X115498000Y-100596033D02*
X115264667Y-100862700D01*
X115264667Y-100862700D02*
X115364667Y-100862700D01*
X115364667Y-100862700D02*
X115431333Y-100896033D01*
X115431333Y-100896033D02*
X115464667Y-100929366D01*
X115464667Y-100929366D02*
X115498000Y-100996033D01*
X115498000Y-100996033D02*
X115498000Y-101162700D01*
X115498000Y-101162700D02*
X115464667Y-101229366D01*
X115464667Y-101229366D02*
X115431333Y-101262700D01*
X115431333Y-101262700D02*
X115364667Y-101296033D01*
X115364667Y-101296033D02*
X115164667Y-101296033D01*
X115164667Y-101296033D02*
X115098000Y-101262700D01*
X115098000Y-101262700D02*
X115064667Y-101229366D01*
X115931334Y-100596033D02*
X115998000Y-100596033D01*
X115998000Y-100596033D02*
X116064667Y-100629366D01*
X116064667Y-100629366D02*
X116098000Y-100662700D01*
X116098000Y-100662700D02*
X116131334Y-100729366D01*
X116131334Y-100729366D02*
X116164667Y-100862700D01*
X116164667Y-100862700D02*
X116164667Y-101029366D01*
X116164667Y-101029366D02*
X116131334Y-101162700D01*
X116131334Y-101162700D02*
X116098000Y-101229366D01*
X116098000Y-101229366D02*
X116064667Y-101262700D01*
X116064667Y-101262700D02*
X115998000Y-101296033D01*
X115998000Y-101296033D02*
X115931334Y-101296033D01*
X115931334Y-101296033D02*
X115864667Y-101262700D01*
X115864667Y-101262700D02*
X115831334Y-101229366D01*
X115831334Y-101229366D02*
X115798000Y-101162700D01*
X115798000Y-101162700D02*
X115764667Y-101029366D01*
X115764667Y-101029366D02*
X115764667Y-100862700D01*
X115764667Y-100862700D02*
X115798000Y-100729366D01*
X115798000Y-100729366D02*
X115831334Y-100662700D01*
X115831334Y-100662700D02*
X115864667Y-100629366D01*
X115864667Y-100629366D02*
X115931334Y-100596033D01*
X100410033Y-81259333D02*
X100910033Y-81259333D01*
X100910033Y-81259333D02*
X101010033Y-81292666D01*
X101010033Y-81292666D02*
X101076700Y-81359333D01*
X101076700Y-81359333D02*
X101110033Y-81459333D01*
X101110033Y-81459333D02*
X101110033Y-81526000D01*
X100410033Y-80992667D02*
X100410033Y-80559333D01*
X100410033Y-80559333D02*
X100676700Y-80792667D01*
X100676700Y-80792667D02*
X100676700Y-80692667D01*
X100676700Y-80692667D02*
X100710033Y-80626000D01*
X100710033Y-80626000D02*
X100743366Y-80592667D01*
X100743366Y-80592667D02*
X100810033Y-80559333D01*
X100810033Y-80559333D02*
X100976700Y-80559333D01*
X100976700Y-80559333D02*
X101043366Y-80592667D01*
X101043366Y-80592667D02*
X101076700Y-80626000D01*
X101076700Y-80626000D02*
X101110033Y-80692667D01*
X101110033Y-80692667D02*
X101110033Y-80892667D01*
X101110033Y-80892667D02*
X101076700Y-80959333D01*
X101076700Y-80959333D02*
X101043366Y-80992667D01*
X105567333Y-84305366D02*
X105534000Y-84338700D01*
X105534000Y-84338700D02*
X105434000Y-84372033D01*
X105434000Y-84372033D02*
X105367333Y-84372033D01*
X105367333Y-84372033D02*
X105267333Y-84338700D01*
X105267333Y-84338700D02*
X105200667Y-84272033D01*
X105200667Y-84272033D02*
X105167333Y-84205366D01*
X105167333Y-84205366D02*
X105134000Y-84072033D01*
X105134000Y-84072033D02*
X105134000Y-83972033D01*
X105134000Y-83972033D02*
X105167333Y-83838700D01*
X105167333Y-83838700D02*
X105200667Y-83772033D01*
X105200667Y-83772033D02*
X105267333Y-83705366D01*
X105267333Y-83705366D02*
X105367333Y-83672033D01*
X105367333Y-83672033D02*
X105434000Y-83672033D01*
X105434000Y-83672033D02*
X105534000Y-83705366D01*
X105534000Y-83705366D02*
X105567333Y-83738700D01*
X105834000Y-83738700D02*
X105867333Y-83705366D01*
X105867333Y-83705366D02*
X105934000Y-83672033D01*
X105934000Y-83672033D02*
X106100667Y-83672033D01*
X106100667Y-83672033D02*
X106167333Y-83705366D01*
X106167333Y-83705366D02*
X106200667Y-83738700D01*
X106200667Y-83738700D02*
X106234000Y-83805366D01*
X106234000Y-83805366D02*
X106234000Y-83872033D01*
X106234000Y-83872033D02*
X106200667Y-83972033D01*
X106200667Y-83972033D02*
X105800667Y-84372033D01*
X105800667Y-84372033D02*
X106234000Y-84372033D01*
X105150667Y-87772033D02*
X105217333Y-87772033D01*
X105217333Y-87772033D02*
X105284000Y-87805366D01*
X105284000Y-87805366D02*
X105317333Y-87838700D01*
X105317333Y-87838700D02*
X105350667Y-87905366D01*
X105350667Y-87905366D02*
X105384000Y-88038700D01*
X105384000Y-88038700D02*
X105384000Y-88205366D01*
X105384000Y-88205366D02*
X105350667Y-88338700D01*
X105350667Y-88338700D02*
X105317333Y-88405366D01*
X105317333Y-88405366D02*
X105284000Y-88438700D01*
X105284000Y-88438700D02*
X105217333Y-88472033D01*
X105217333Y-88472033D02*
X105150667Y-88472033D01*
X105150667Y-88472033D02*
X105084000Y-88438700D01*
X105084000Y-88438700D02*
X105050667Y-88405366D01*
X105050667Y-88405366D02*
X105017333Y-88338700D01*
X105017333Y-88338700D02*
X104984000Y-88205366D01*
X104984000Y-88205366D02*
X104984000Y-88038700D01*
X104984000Y-88038700D02*
X105017333Y-87905366D01*
X105017333Y-87905366D02*
X105050667Y-87838700D01*
X105050667Y-87838700D02*
X105084000Y-87805366D01*
X105084000Y-87805366D02*
X105150667Y-87772033D01*
X105684000Y-88405366D02*
X105717334Y-88438700D01*
X105717334Y-88438700D02*
X105684000Y-88472033D01*
X105684000Y-88472033D02*
X105650667Y-88438700D01*
X105650667Y-88438700D02*
X105684000Y-88405366D01*
X105684000Y-88405366D02*
X105684000Y-88472033D01*
X106384000Y-88472033D02*
X105984000Y-88472033D01*
X106184000Y-88472033D02*
X106184000Y-87772033D01*
X106184000Y-87772033D02*
X106117333Y-87872033D01*
X106117333Y-87872033D02*
X106050667Y-87938700D01*
X106050667Y-87938700D02*
X105984000Y-87972033D01*
X99197333Y-84069366D02*
X99164000Y-84102700D01*
X99164000Y-84102700D02*
X99064000Y-84136033D01*
X99064000Y-84136033D02*
X98997333Y-84136033D01*
X98997333Y-84136033D02*
X98897333Y-84102700D01*
X98897333Y-84102700D02*
X98830667Y-84036033D01*
X98830667Y-84036033D02*
X98797333Y-83969366D01*
X98797333Y-83969366D02*
X98764000Y-83836033D01*
X98764000Y-83836033D02*
X98764000Y-83736033D01*
X98764000Y-83736033D02*
X98797333Y-83602700D01*
X98797333Y-83602700D02*
X98830667Y-83536033D01*
X98830667Y-83536033D02*
X98897333Y-83469366D01*
X98897333Y-83469366D02*
X98997333Y-83436033D01*
X98997333Y-83436033D02*
X99064000Y-83436033D01*
X99064000Y-83436033D02*
X99164000Y-83469366D01*
X99164000Y-83469366D02*
X99197333Y-83502700D01*
X99864000Y-84136033D02*
X99464000Y-84136033D01*
X99664000Y-84136033D02*
X99664000Y-83436033D01*
X99664000Y-83436033D02*
X99597333Y-83536033D01*
X99597333Y-83536033D02*
X99530667Y-83602700D01*
X99530667Y-83602700D02*
X99464000Y-83636033D01*
X98844000Y-88218033D02*
X98444000Y-88218033D01*
X98644000Y-88218033D02*
X98644000Y-87518033D01*
X98644000Y-87518033D02*
X98577333Y-87618033D01*
X98577333Y-87618033D02*
X98510667Y-87684700D01*
X98510667Y-87684700D02*
X98444000Y-87718033D01*
X99277334Y-87518033D02*
X99344000Y-87518033D01*
X99344000Y-87518033D02*
X99410667Y-87551366D01*
X99410667Y-87551366D02*
X99444000Y-87584700D01*
X99444000Y-87584700D02*
X99477334Y-87651366D01*
X99477334Y-87651366D02*
X99510667Y-87784700D01*
X99510667Y-87784700D02*
X99510667Y-87951366D01*
X99510667Y-87951366D02*
X99477334Y-88084700D01*
X99477334Y-88084700D02*
X99444000Y-88151366D01*
X99444000Y-88151366D02*
X99410667Y-88184700D01*
X99410667Y-88184700D02*
X99344000Y-88218033D01*
X99344000Y-88218033D02*
X99277334Y-88218033D01*
X99277334Y-88218033D02*
X99210667Y-88184700D01*
X99210667Y-88184700D02*
X99177334Y-88151366D01*
X99177334Y-88151366D02*
X99144000Y-88084700D01*
X99144000Y-88084700D02*
X99110667Y-87951366D01*
X99110667Y-87951366D02*
X99110667Y-87784700D01*
X99110667Y-87784700D02*
X99144000Y-87651366D01*
X99144000Y-87651366D02*
X99177334Y-87584700D01*
X99177334Y-87584700D02*
X99210667Y-87551366D01*
X99210667Y-87551366D02*
X99277334Y-87518033D01*
X100110667Y-87751366D02*
X100110667Y-88218033D01*
X99810667Y-87751366D02*
X99810667Y-88118033D01*
X99810667Y-88118033D02*
X99844001Y-88184700D01*
X99844001Y-88184700D02*
X99910667Y-88218033D01*
X99910667Y-88218033D02*
X100010667Y-88218033D01*
X100010667Y-88218033D02*
X100077334Y-88184700D01*
X100077334Y-88184700D02*
X100110667Y-88151366D01*
X115307333Y-102528033D02*
X115307333Y-101828033D01*
X115307333Y-101828033D02*
X115474000Y-101828033D01*
X115474000Y-101828033D02*
X115574000Y-101861366D01*
X115574000Y-101861366D02*
X115640667Y-101928033D01*
X115640667Y-101928033D02*
X115674000Y-101994700D01*
X115674000Y-101994700D02*
X115707333Y-102128033D01*
X115707333Y-102128033D02*
X115707333Y-102228033D01*
X115707333Y-102228033D02*
X115674000Y-102361366D01*
X115674000Y-102361366D02*
X115640667Y-102428033D01*
X115640667Y-102428033D02*
X115574000Y-102494700D01*
X115574000Y-102494700D02*
X115474000Y-102528033D01*
X115474000Y-102528033D02*
X115307333Y-102528033D01*
X116374000Y-102528033D02*
X115974000Y-102528033D01*
X116174000Y-102528033D02*
X116174000Y-101828033D01*
X116174000Y-101828033D02*
X116107333Y-101928033D01*
X116107333Y-101928033D02*
X116040667Y-101994700D01*
X116040667Y-101994700D02*
X115974000Y-102028033D01*
X116378000Y-110448033D02*
X116044666Y-110448033D01*
X116044666Y-110448033D02*
X116044666Y-109748033D01*
X116611333Y-110081366D02*
X116844667Y-110081366D01*
X116944667Y-110448033D02*
X116611333Y-110448033D01*
X116611333Y-110448033D02*
X116611333Y-109748033D01*
X116611333Y-109748033D02*
X116944667Y-109748033D01*
X117244666Y-110448033D02*
X117244666Y-109748033D01*
X117244666Y-109748033D02*
X117411333Y-109748033D01*
X117411333Y-109748033D02*
X117511333Y-109781366D01*
X117511333Y-109781366D02*
X117578000Y-109848033D01*
X117578000Y-109848033D02*
X117611333Y-109914700D01*
X117611333Y-109914700D02*
X117644666Y-110048033D01*
X117644666Y-110048033D02*
X117644666Y-110148033D01*
X117644666Y-110148033D02*
X117611333Y-110281366D01*
X117611333Y-110281366D02*
X117578000Y-110348033D01*
X117578000Y-110348033D02*
X117511333Y-110414700D01*
X117511333Y-110414700D02*
X117411333Y-110448033D01*
X117411333Y-110448033D02*
X117244666Y-110448033D01*
X113324666Y-90136700D02*
X113424666Y-90170033D01*
X113424666Y-90170033D02*
X113591333Y-90170033D01*
X113591333Y-90170033D02*
X113657999Y-90136700D01*
X113657999Y-90136700D02*
X113691333Y-90103366D01*
X113691333Y-90103366D02*
X113724666Y-90036700D01*
X113724666Y-90036700D02*
X113724666Y-89970033D01*
X113724666Y-89970033D02*
X113691333Y-89903366D01*
X113691333Y-89903366D02*
X113657999Y-89870033D01*
X113657999Y-89870033D02*
X113591333Y-89836700D01*
X113591333Y-89836700D02*
X113457999Y-89803366D01*
X113457999Y-89803366D02*
X113391333Y-89770033D01*
X113391333Y-89770033D02*
X113357999Y-89736700D01*
X113357999Y-89736700D02*
X113324666Y-89670033D01*
X113324666Y-89670033D02*
X113324666Y-89603366D01*
X113324666Y-89603366D02*
X113357999Y-89536700D01*
X113357999Y-89536700D02*
X113391333Y-89503366D01*
X113391333Y-89503366D02*
X113457999Y-89470033D01*
X113457999Y-89470033D02*
X113624666Y-89470033D01*
X113624666Y-89470033D02*
X113724666Y-89503366D01*
X113958000Y-89470033D02*
X114124666Y-90170033D01*
X114124666Y-90170033D02*
X114258000Y-89670033D01*
X114258000Y-89670033D02*
X114391333Y-90170033D01*
X114391333Y-90170033D02*
X114558000Y-89470033D01*
X115191333Y-90170033D02*
X114791333Y-90170033D01*
X114991333Y-90170033D02*
X114991333Y-89470033D01*
X114991333Y-89470033D02*
X114924666Y-89570033D01*
X114924666Y-89570033D02*
X114858000Y-89636700D01*
X114858000Y-89636700D02*
X114791333Y-89670033D01*
X112091333Y-96356700D02*
X112191333Y-96390033D01*
X112191333Y-96390033D02*
X112358000Y-96390033D01*
X112358000Y-96390033D02*
X112424666Y-96356700D01*
X112424666Y-96356700D02*
X112458000Y-96323366D01*
X112458000Y-96323366D02*
X112491333Y-96256700D01*
X112491333Y-96256700D02*
X112491333Y-96190033D01*
X112491333Y-96190033D02*
X112458000Y-96123366D01*
X112458000Y-96123366D02*
X112424666Y-96090033D01*
X112424666Y-96090033D02*
X112358000Y-96056700D01*
X112358000Y-96056700D02*
X112224666Y-96023366D01*
X112224666Y-96023366D02*
X112158000Y-95990033D01*
X112158000Y-95990033D02*
X112124666Y-95956700D01*
X112124666Y-95956700D02*
X112091333Y-95890033D01*
X112091333Y-95890033D02*
X112091333Y-95823366D01*
X112091333Y-95823366D02*
X112124666Y-95756700D01*
X112124666Y-95756700D02*
X112158000Y-95723366D01*
X112158000Y-95723366D02*
X112224666Y-95690033D01*
X112224666Y-95690033D02*
X112391333Y-95690033D01*
X112391333Y-95690033D02*
X112491333Y-95723366D01*
X112724667Y-95690033D02*
X112891333Y-96390033D01*
X112891333Y-96390033D02*
X113024667Y-95890033D01*
X113024667Y-95890033D02*
X113158000Y-96390033D01*
X113158000Y-96390033D02*
X113324667Y-95690033D01*
X113424667Y-96456700D02*
X113958000Y-96456700D01*
X114091333Y-96356700D02*
X114191333Y-96390033D01*
X114191333Y-96390033D02*
X114358000Y-96390033D01*
X114358000Y-96390033D02*
X114424666Y-96356700D01*
X114424666Y-96356700D02*
X114458000Y-96323366D01*
X114458000Y-96323366D02*
X114491333Y-96256700D01*
X114491333Y-96256700D02*
X114491333Y-96190033D01*
X114491333Y-96190033D02*
X114458000Y-96123366D01*
X114458000Y-96123366D02*
X114424666Y-96090033D01*
X114424666Y-96090033D02*
X114358000Y-96056700D01*
X114358000Y-96056700D02*
X114224666Y-96023366D01*
X114224666Y-96023366D02*
X114158000Y-95990033D01*
X114158000Y-95990033D02*
X114124666Y-95956700D01*
X114124666Y-95956700D02*
X114091333Y-95890033D01*
X114091333Y-95890033D02*
X114091333Y-95823366D01*
X114091333Y-95823366D02*
X114124666Y-95756700D01*
X114124666Y-95756700D02*
X114158000Y-95723366D01*
X114158000Y-95723366D02*
X114224666Y-95690033D01*
X114224666Y-95690033D02*
X114391333Y-95690033D01*
X114391333Y-95690033D02*
X114491333Y-95723366D01*
X114791333Y-96390033D02*
X114791333Y-95690033D01*
X114791333Y-95690033D02*
X115058000Y-95690033D01*
X115058000Y-95690033D02*
X115124667Y-95723366D01*
X115124667Y-95723366D02*
X115158000Y-95756700D01*
X115158000Y-95756700D02*
X115191333Y-95823366D01*
X115191333Y-95823366D02*
X115191333Y-95923366D01*
X115191333Y-95923366D02*
X115158000Y-95990033D01*
X115158000Y-95990033D02*
X115124667Y-96023366D01*
X115124667Y-96023366D02*
X115058000Y-96056700D01*
X115058000Y-96056700D02*
X114791333Y-96056700D01*
X115491333Y-96390033D02*
X115491333Y-95690033D01*
X115491333Y-95690033D02*
X115658000Y-95690033D01*
X115658000Y-95690033D02*
X115758000Y-95723366D01*
X115758000Y-95723366D02*
X115824667Y-95790033D01*
X115824667Y-95790033D02*
X115858000Y-95856700D01*
X115858000Y-95856700D02*
X115891333Y-95990033D01*
X115891333Y-95990033D02*
X115891333Y-96090033D01*
X115891333Y-96090033D02*
X115858000Y-96223366D01*
X115858000Y-96223366D02*
X115824667Y-96290033D01*
X115824667Y-96290033D02*
X115758000Y-96356700D01*
X115758000Y-96356700D02*
X115658000Y-96390033D01*
X115658000Y-96390033D02*
X115491333Y-96390033D01*
X116091333Y-95690033D02*
X116491333Y-95690033D01*
X116291333Y-96390033D02*
X116291333Y-95690033D01*
X99140033Y-130789333D02*
X99640033Y-130789333D01*
X99640033Y-130789333D02*
X99740033Y-130822666D01*
X99740033Y-130822666D02*
X99806700Y-130889333D01*
X99806700Y-130889333D02*
X99840033Y-130989333D01*
X99840033Y-130989333D02*
X99840033Y-131056000D01*
X99140033Y-130522667D02*
X99140033Y-130056000D01*
X99140033Y-130056000D02*
X99840033Y-130356000D01*
X115181333Y-118792033D02*
X114948000Y-118458700D01*
X114781333Y-118792033D02*
X114781333Y-118092033D01*
X114781333Y-118092033D02*
X115048000Y-118092033D01*
X115048000Y-118092033D02*
X115114667Y-118125366D01*
X115114667Y-118125366D02*
X115148000Y-118158700D01*
X115148000Y-118158700D02*
X115181333Y-118225366D01*
X115181333Y-118225366D02*
X115181333Y-118325366D01*
X115181333Y-118325366D02*
X115148000Y-118392033D01*
X115148000Y-118392033D02*
X115114667Y-118425366D01*
X115114667Y-118425366D02*
X115048000Y-118458700D01*
X115048000Y-118458700D02*
X114781333Y-118458700D01*
X115448000Y-118158700D02*
X115481333Y-118125366D01*
X115481333Y-118125366D02*
X115548000Y-118092033D01*
X115548000Y-118092033D02*
X115714667Y-118092033D01*
X115714667Y-118092033D02*
X115781333Y-118125366D01*
X115781333Y-118125366D02*
X115814667Y-118158700D01*
X115814667Y-118158700D02*
X115848000Y-118225366D01*
X115848000Y-118225366D02*
X115848000Y-118292033D01*
X115848000Y-118292033D02*
X115814667Y-118392033D01*
X115814667Y-118392033D02*
X115414667Y-118792033D01*
X115414667Y-118792033D02*
X115848000Y-118792033D01*
X113146000Y-121932033D02*
X113579333Y-121932033D01*
X113579333Y-121932033D02*
X113346000Y-122198700D01*
X113346000Y-122198700D02*
X113446000Y-122198700D01*
X113446000Y-122198700D02*
X113512666Y-122232033D01*
X113512666Y-122232033D02*
X113546000Y-122265366D01*
X113546000Y-122265366D02*
X113579333Y-122332033D01*
X113579333Y-122332033D02*
X113579333Y-122498700D01*
X113579333Y-122498700D02*
X113546000Y-122565366D01*
X113546000Y-122565366D02*
X113512666Y-122598700D01*
X113512666Y-122598700D02*
X113446000Y-122632033D01*
X113446000Y-122632033D02*
X113246000Y-122632033D01*
X113246000Y-122632033D02*
X113179333Y-122598700D01*
X113179333Y-122598700D02*
X113146000Y-122565366D01*
X113812667Y-121932033D02*
X114246000Y-121932033D01*
X114246000Y-121932033D02*
X114012667Y-122198700D01*
X114012667Y-122198700D02*
X114112667Y-122198700D01*
X114112667Y-122198700D02*
X114179333Y-122232033D01*
X114179333Y-122232033D02*
X114212667Y-122265366D01*
X114212667Y-122265366D02*
X114246000Y-122332033D01*
X114246000Y-122332033D02*
X114246000Y-122498700D01*
X114246000Y-122498700D02*
X114212667Y-122565366D01*
X114212667Y-122565366D02*
X114179333Y-122598700D01*
X114179333Y-122598700D02*
X114112667Y-122632033D01*
X114112667Y-122632033D02*
X113912667Y-122632033D01*
X113912667Y-122632033D02*
X113846000Y-122598700D01*
X113846000Y-122598700D02*
X113812667Y-122565366D01*
X114679334Y-121932033D02*
X114746000Y-121932033D01*
X114746000Y-121932033D02*
X114812667Y-121965366D01*
X114812667Y-121965366D02*
X114846000Y-121998700D01*
X114846000Y-121998700D02*
X114879334Y-122065366D01*
X114879334Y-122065366D02*
X114912667Y-122198700D01*
X114912667Y-122198700D02*
X114912667Y-122365366D01*
X114912667Y-122365366D02*
X114879334Y-122498700D01*
X114879334Y-122498700D02*
X114846000Y-122565366D01*
X114846000Y-122565366D02*
X114812667Y-122598700D01*
X114812667Y-122598700D02*
X114746000Y-122632033D01*
X114746000Y-122632033D02*
X114679334Y-122632033D01*
X114679334Y-122632033D02*
X114612667Y-122598700D01*
X114612667Y-122598700D02*
X114579334Y-122565366D01*
X114579334Y-122565366D02*
X114546000Y-122498700D01*
X114546000Y-122498700D02*
X114512667Y-122365366D01*
X114512667Y-122365366D02*
X114512667Y-122198700D01*
X114512667Y-122198700D02*
X114546000Y-122065366D01*
X114546000Y-122065366D02*
X114579334Y-121998700D01*
X114579334Y-121998700D02*
X114612667Y-121965366D01*
X114612667Y-121965366D02*
X114679334Y-121932033D01*
X100304666Y-89072033D02*
X100304666Y-89638700D01*
X100304666Y-89638700D02*
X100338000Y-89705366D01*
X100338000Y-89705366D02*
X100371333Y-89738700D01*
X100371333Y-89738700D02*
X100438000Y-89772033D01*
X100438000Y-89772033D02*
X100571333Y-89772033D01*
X100571333Y-89772033D02*
X100638000Y-89738700D01*
X100638000Y-89738700D02*
X100671333Y-89705366D01*
X100671333Y-89705366D02*
X100704666Y-89638700D01*
X100704666Y-89638700D02*
X100704666Y-89072033D01*
X101004666Y-89138700D02*
X101037999Y-89105366D01*
X101037999Y-89105366D02*
X101104666Y-89072033D01*
X101104666Y-89072033D02*
X101271333Y-89072033D01*
X101271333Y-89072033D02*
X101337999Y-89105366D01*
X101337999Y-89105366D02*
X101371333Y-89138700D01*
X101371333Y-89138700D02*
X101404666Y-89205366D01*
X101404666Y-89205366D02*
X101404666Y-89272033D01*
X101404666Y-89272033D02*
X101371333Y-89372033D01*
X101371333Y-89372033D02*
X100971333Y-89772033D01*
X100971333Y-89772033D02*
X101404666Y-89772033D01*
X97321333Y-96542033D02*
X96987999Y-96542033D01*
X96987999Y-96542033D02*
X96987999Y-95842033D01*
X97554666Y-96542033D02*
X97554666Y-95842033D01*
X97554666Y-95842033D02*
X97788000Y-96342033D01*
X97788000Y-96342033D02*
X98021333Y-95842033D01*
X98021333Y-95842033D02*
X98021333Y-96542033D01*
X98288000Y-95842033D02*
X98721333Y-95842033D01*
X98721333Y-95842033D02*
X98488000Y-96108700D01*
X98488000Y-96108700D02*
X98588000Y-96108700D01*
X98588000Y-96108700D02*
X98654666Y-96142033D01*
X98654666Y-96142033D02*
X98688000Y-96175366D01*
X98688000Y-96175366D02*
X98721333Y-96242033D01*
X98721333Y-96242033D02*
X98721333Y-96408700D01*
X98721333Y-96408700D02*
X98688000Y-96475366D01*
X98688000Y-96475366D02*
X98654666Y-96508700D01*
X98654666Y-96508700D02*
X98588000Y-96542033D01*
X98588000Y-96542033D02*
X98388000Y-96542033D01*
X98388000Y-96542033D02*
X98321333Y-96508700D01*
X98321333Y-96508700D02*
X98288000Y-96475366D01*
X99388000Y-96542033D02*
X98988000Y-96542033D01*
X99188000Y-96542033D02*
X99188000Y-95842033D01*
X99188000Y-95842033D02*
X99121333Y-95942033D01*
X99121333Y-95942033D02*
X99054667Y-96008700D01*
X99054667Y-96008700D02*
X98988000Y-96042033D01*
X99621334Y-95842033D02*
X100088000Y-95842033D01*
X100088000Y-95842033D02*
X99788000Y-96542033D01*
X100188001Y-96608700D02*
X100721334Y-96608700D01*
X100788000Y-95842033D02*
X101188000Y-95842033D01*
X100988000Y-96542033D02*
X100988000Y-95842033D01*
X101554667Y-95842033D02*
X101688000Y-95842033D01*
X101688000Y-95842033D02*
X101754667Y-95875366D01*
X101754667Y-95875366D02*
X101821333Y-95942033D01*
X101821333Y-95942033D02*
X101854667Y-96075366D01*
X101854667Y-96075366D02*
X101854667Y-96308700D01*
X101854667Y-96308700D02*
X101821333Y-96442033D01*
X101821333Y-96442033D02*
X101754667Y-96508700D01*
X101754667Y-96508700D02*
X101688000Y-96542033D01*
X101688000Y-96542033D02*
X101554667Y-96542033D01*
X101554667Y-96542033D02*
X101488000Y-96508700D01*
X101488000Y-96508700D02*
X101421333Y-96442033D01*
X101421333Y-96442033D02*
X101388000Y-96308700D01*
X101388000Y-96308700D02*
X101388000Y-96075366D01*
X101388000Y-96075366D02*
X101421333Y-95942033D01*
X101421333Y-95942033D02*
X101488000Y-95875366D01*
X101488000Y-95875366D02*
X101554667Y-95842033D01*
X102154666Y-96275366D02*
X102688000Y-96275366D01*
X102988000Y-95908700D02*
X103021333Y-95875366D01*
X103021333Y-95875366D02*
X103088000Y-95842033D01*
X103088000Y-95842033D02*
X103254667Y-95842033D01*
X103254667Y-95842033D02*
X103321333Y-95875366D01*
X103321333Y-95875366D02*
X103354667Y-95908700D01*
X103354667Y-95908700D02*
X103388000Y-95975366D01*
X103388000Y-95975366D02*
X103388000Y-96042033D01*
X103388000Y-96042033D02*
X103354667Y-96142033D01*
X103354667Y-96142033D02*
X102954667Y-96542033D01*
X102954667Y-96542033D02*
X103388000Y-96542033D01*
X103654667Y-95908700D02*
X103688000Y-95875366D01*
X103688000Y-95875366D02*
X103754667Y-95842033D01*
X103754667Y-95842033D02*
X103921334Y-95842033D01*
X103921334Y-95842033D02*
X103988000Y-95875366D01*
X103988000Y-95875366D02*
X104021334Y-95908700D01*
X104021334Y-95908700D02*
X104054667Y-95975366D01*
X104054667Y-95975366D02*
X104054667Y-96042033D01*
X104054667Y-96042033D02*
X104021334Y-96142033D01*
X104021334Y-96142033D02*
X103621334Y-96542033D01*
X103621334Y-96542033D02*
X104054667Y-96542033D01*
X104488001Y-95842033D02*
X104554667Y-95842033D01*
X104554667Y-95842033D02*
X104621334Y-95875366D01*
X104621334Y-95875366D02*
X104654667Y-95908700D01*
X104654667Y-95908700D02*
X104688001Y-95975366D01*
X104688001Y-95975366D02*
X104721334Y-96108700D01*
X104721334Y-96108700D02*
X104721334Y-96275366D01*
X104721334Y-96275366D02*
X104688001Y-96408700D01*
X104688001Y-96408700D02*
X104654667Y-96475366D01*
X104654667Y-96475366D02*
X104621334Y-96508700D01*
X104621334Y-96508700D02*
X104554667Y-96542033D01*
X104554667Y-96542033D02*
X104488001Y-96542033D01*
X104488001Y-96542033D02*
X104421334Y-96508700D01*
X104421334Y-96508700D02*
X104388001Y-96475366D01*
X104388001Y-96475366D02*
X104354667Y-96408700D01*
X104354667Y-96408700D02*
X104321334Y-96275366D01*
X104321334Y-96275366D02*
X104321334Y-96108700D01*
X104321334Y-96108700D02*
X104354667Y-95975366D01*
X104354667Y-95975366D02*
X104388001Y-95908700D01*
X104388001Y-95908700D02*
X104421334Y-95875366D01*
X104421334Y-95875366D02*
X104488001Y-95842033D01*
X100186666Y-110268033D02*
X100186666Y-110768033D01*
X100186666Y-110768033D02*
X100153333Y-110868033D01*
X100153333Y-110868033D02*
X100086666Y-110934700D01*
X100086666Y-110934700D02*
X99986666Y-110968033D01*
X99986666Y-110968033D02*
X99920000Y-110968033D01*
X100619999Y-110568033D02*
X100553333Y-110534700D01*
X100553333Y-110534700D02*
X100519999Y-110501366D01*
X100519999Y-110501366D02*
X100486666Y-110434700D01*
X100486666Y-110434700D02*
X100486666Y-110401366D01*
X100486666Y-110401366D02*
X100519999Y-110334700D01*
X100519999Y-110334700D02*
X100553333Y-110301366D01*
X100553333Y-110301366D02*
X100619999Y-110268033D01*
X100619999Y-110268033D02*
X100753333Y-110268033D01*
X100753333Y-110268033D02*
X100819999Y-110301366D01*
X100819999Y-110301366D02*
X100853333Y-110334700D01*
X100853333Y-110334700D02*
X100886666Y-110401366D01*
X100886666Y-110401366D02*
X100886666Y-110434700D01*
X100886666Y-110434700D02*
X100853333Y-110501366D01*
X100853333Y-110501366D02*
X100819999Y-110534700D01*
X100819999Y-110534700D02*
X100753333Y-110568033D01*
X100753333Y-110568033D02*
X100619999Y-110568033D01*
X100619999Y-110568033D02*
X100553333Y-110601366D01*
X100553333Y-110601366D02*
X100519999Y-110634700D01*
X100519999Y-110634700D02*
X100486666Y-110701366D01*
X100486666Y-110701366D02*
X100486666Y-110834700D01*
X100486666Y-110834700D02*
X100519999Y-110901366D01*
X100519999Y-110901366D02*
X100553333Y-110934700D01*
X100553333Y-110934700D02*
X100619999Y-110968033D01*
X100619999Y-110968033D02*
X100753333Y-110968033D01*
X100753333Y-110968033D02*
X100819999Y-110934700D01*
X100819999Y-110934700D02*
X100853333Y-110901366D01*
X100853333Y-110901366D02*
X100886666Y-110834700D01*
X100886666Y-110834700D02*
X100886666Y-110701366D01*
X100886666Y-110701366D02*
X100853333Y-110634700D01*
X100853333Y-110634700D02*
X100819999Y-110601366D01*
X100819999Y-110601366D02*
X100753333Y-110568033D01*
X98103335Y-99351366D02*
X98203335Y-99384700D01*
X98203335Y-99384700D02*
X98236668Y-99418033D01*
X98236668Y-99418033D02*
X98270001Y-99484700D01*
X98270001Y-99484700D02*
X98270001Y-99584700D01*
X98270001Y-99584700D02*
X98236668Y-99651366D01*
X98236668Y-99651366D02*
X98203335Y-99684700D01*
X98203335Y-99684700D02*
X98136668Y-99718033D01*
X98136668Y-99718033D02*
X97870001Y-99718033D01*
X97870001Y-99718033D02*
X97870001Y-99018033D01*
X97870001Y-99018033D02*
X98103335Y-99018033D01*
X98103335Y-99018033D02*
X98170001Y-99051366D01*
X98170001Y-99051366D02*
X98203335Y-99084700D01*
X98203335Y-99084700D02*
X98236668Y-99151366D01*
X98236668Y-99151366D02*
X98236668Y-99218033D01*
X98236668Y-99218033D02*
X98203335Y-99284700D01*
X98203335Y-99284700D02*
X98170001Y-99318033D01*
X98170001Y-99318033D02*
X98103335Y-99351366D01*
X98103335Y-99351366D02*
X97870001Y-99351366D01*
X98870001Y-99718033D02*
X98870001Y-99351366D01*
X98870001Y-99351366D02*
X98836668Y-99284700D01*
X98836668Y-99284700D02*
X98770001Y-99251366D01*
X98770001Y-99251366D02*
X98636668Y-99251366D01*
X98636668Y-99251366D02*
X98570001Y-99284700D01*
X98870001Y-99684700D02*
X98803335Y-99718033D01*
X98803335Y-99718033D02*
X98636668Y-99718033D01*
X98636668Y-99718033D02*
X98570001Y-99684700D01*
X98570001Y-99684700D02*
X98536668Y-99618033D01*
X98536668Y-99618033D02*
X98536668Y-99551366D01*
X98536668Y-99551366D02*
X98570001Y-99484700D01*
X98570001Y-99484700D02*
X98636668Y-99451366D01*
X98636668Y-99451366D02*
X98803335Y-99451366D01*
X98803335Y-99451366D02*
X98870001Y-99418033D01*
X99203334Y-99718033D02*
X99203334Y-99251366D01*
X99203334Y-99384700D02*
X99236668Y-99318033D01*
X99236668Y-99318033D02*
X99270001Y-99284700D01*
X99270001Y-99284700D02*
X99336668Y-99251366D01*
X99336668Y-99251366D02*
X99403334Y-99251366D01*
X99636667Y-99718033D02*
X99636667Y-99251366D01*
X99636667Y-99384700D02*
X99670001Y-99318033D01*
X99670001Y-99318033D02*
X99703334Y-99284700D01*
X99703334Y-99284700D02*
X99770001Y-99251366D01*
X99770001Y-99251366D02*
X99836667Y-99251366D01*
X100336667Y-99684700D02*
X100270000Y-99718033D01*
X100270000Y-99718033D02*
X100136667Y-99718033D01*
X100136667Y-99718033D02*
X100070000Y-99684700D01*
X100070000Y-99684700D02*
X100036667Y-99618033D01*
X100036667Y-99618033D02*
X100036667Y-99351366D01*
X100036667Y-99351366D02*
X100070000Y-99284700D01*
X100070000Y-99284700D02*
X100136667Y-99251366D01*
X100136667Y-99251366D02*
X100270000Y-99251366D01*
X100270000Y-99251366D02*
X100336667Y-99284700D01*
X100336667Y-99284700D02*
X100370000Y-99351366D01*
X100370000Y-99351366D02*
X100370000Y-99418033D01*
X100370000Y-99418033D02*
X100036667Y-99484700D01*
X100770000Y-99718033D02*
X100703334Y-99684700D01*
X100703334Y-99684700D02*
X100670000Y-99618033D01*
X100670000Y-99618033D02*
X100670000Y-99018033D01*
X100870001Y-99784700D02*
X101403334Y-99784700D01*
X101770000Y-99018033D02*
X101770000Y-99518033D01*
X101770000Y-99518033D02*
X101736667Y-99618033D01*
X101736667Y-99618033D02*
X101670000Y-99684700D01*
X101670000Y-99684700D02*
X101570000Y-99718033D01*
X101570000Y-99718033D02*
X101503334Y-99718033D01*
X102403333Y-99718033D02*
X102403333Y-99351366D01*
X102403333Y-99351366D02*
X102370000Y-99284700D01*
X102370000Y-99284700D02*
X102303333Y-99251366D01*
X102303333Y-99251366D02*
X102170000Y-99251366D01*
X102170000Y-99251366D02*
X102103333Y-99284700D01*
X102403333Y-99684700D02*
X102336667Y-99718033D01*
X102336667Y-99718033D02*
X102170000Y-99718033D01*
X102170000Y-99718033D02*
X102103333Y-99684700D01*
X102103333Y-99684700D02*
X102070000Y-99618033D01*
X102070000Y-99618033D02*
X102070000Y-99551366D01*
X102070000Y-99551366D02*
X102103333Y-99484700D01*
X102103333Y-99484700D02*
X102170000Y-99451366D01*
X102170000Y-99451366D02*
X102336667Y-99451366D01*
X102336667Y-99451366D02*
X102403333Y-99418033D01*
X103036666Y-99684700D02*
X102970000Y-99718033D01*
X102970000Y-99718033D02*
X102836666Y-99718033D01*
X102836666Y-99718033D02*
X102770000Y-99684700D01*
X102770000Y-99684700D02*
X102736666Y-99651366D01*
X102736666Y-99651366D02*
X102703333Y-99584700D01*
X102703333Y-99584700D02*
X102703333Y-99384700D01*
X102703333Y-99384700D02*
X102736666Y-99318033D01*
X102736666Y-99318033D02*
X102770000Y-99284700D01*
X102770000Y-99284700D02*
X102836666Y-99251366D01*
X102836666Y-99251366D02*
X102970000Y-99251366D01*
X102970000Y-99251366D02*
X103036666Y-99284700D01*
X103336666Y-99718033D02*
X103336666Y-99018033D01*
X103403333Y-99451366D02*
X103603333Y-99718033D01*
X103603333Y-99251366D02*
X103336666Y-99518033D01*
X103736667Y-99784700D02*
X104270000Y-99784700D01*
X104403333Y-99684700D02*
X104503333Y-99718033D01*
X104503333Y-99718033D02*
X104670000Y-99718033D01*
X104670000Y-99718033D02*
X104736666Y-99684700D01*
X104736666Y-99684700D02*
X104770000Y-99651366D01*
X104770000Y-99651366D02*
X104803333Y-99584700D01*
X104803333Y-99584700D02*
X104803333Y-99518033D01*
X104803333Y-99518033D02*
X104770000Y-99451366D01*
X104770000Y-99451366D02*
X104736666Y-99418033D01*
X104736666Y-99418033D02*
X104670000Y-99384700D01*
X104670000Y-99384700D02*
X104536666Y-99351366D01*
X104536666Y-99351366D02*
X104470000Y-99318033D01*
X104470000Y-99318033D02*
X104436666Y-99284700D01*
X104436666Y-99284700D02*
X104403333Y-99218033D01*
X104403333Y-99218033D02*
X104403333Y-99151366D01*
X104403333Y-99151366D02*
X104436666Y-99084700D01*
X104436666Y-99084700D02*
X104470000Y-99051366D01*
X104470000Y-99051366D02*
X104536666Y-99018033D01*
X104536666Y-99018033D02*
X104703333Y-99018033D01*
X104703333Y-99018033D02*
X104803333Y-99051366D01*
X105036667Y-99251366D02*
X105170000Y-99718033D01*
X105170000Y-99718033D02*
X105303333Y-99384700D01*
X105303333Y-99384700D02*
X105436667Y-99718033D01*
X105436667Y-99718033D02*
X105570000Y-99251366D01*
X105836666Y-99718033D02*
X105836666Y-99251366D01*
X105836666Y-99018033D02*
X105803333Y-99051366D01*
X105803333Y-99051366D02*
X105836666Y-99084700D01*
X105836666Y-99084700D02*
X105870000Y-99051366D01*
X105870000Y-99051366D02*
X105836666Y-99018033D01*
X105836666Y-99018033D02*
X105836666Y-99084700D01*
X106069999Y-99251366D02*
X106336666Y-99251366D01*
X106169999Y-99018033D02*
X106169999Y-99618033D01*
X106169999Y-99618033D02*
X106203333Y-99684700D01*
X106203333Y-99684700D02*
X106269999Y-99718033D01*
X106269999Y-99718033D02*
X106336666Y-99718033D01*
X106869999Y-99684700D02*
X106803333Y-99718033D01*
X106803333Y-99718033D02*
X106669999Y-99718033D01*
X106669999Y-99718033D02*
X106603333Y-99684700D01*
X106603333Y-99684700D02*
X106569999Y-99651366D01*
X106569999Y-99651366D02*
X106536666Y-99584700D01*
X106536666Y-99584700D02*
X106536666Y-99384700D01*
X106536666Y-99384700D02*
X106569999Y-99318033D01*
X106569999Y-99318033D02*
X106603333Y-99284700D01*
X106603333Y-99284700D02*
X106669999Y-99251366D01*
X106669999Y-99251366D02*
X106803333Y-99251366D01*
X106803333Y-99251366D02*
X106869999Y-99284700D01*
X107169999Y-99718033D02*
X107169999Y-99018033D01*
X107469999Y-99718033D02*
X107469999Y-99351366D01*
X107469999Y-99351366D02*
X107436666Y-99284700D01*
X107436666Y-99284700D02*
X107369999Y-99251366D01*
X107369999Y-99251366D02*
X107269999Y-99251366D01*
X107269999Y-99251366D02*
X107203333Y-99284700D01*
X107203333Y-99284700D02*
X107169999Y-99318033D01*
X99796666Y-111932033D02*
X99796666Y-112498700D01*
X99796666Y-112498700D02*
X99830000Y-112565366D01*
X99830000Y-112565366D02*
X99863333Y-112598700D01*
X99863333Y-112598700D02*
X99930000Y-112632033D01*
X99930000Y-112632033D02*
X100063333Y-112632033D01*
X100063333Y-112632033D02*
X100130000Y-112598700D01*
X100130000Y-112598700D02*
X100163333Y-112565366D01*
X100163333Y-112565366D02*
X100196666Y-112498700D01*
X100196666Y-112498700D02*
X100196666Y-111932033D01*
X100896666Y-112632033D02*
X100496666Y-112632033D01*
X100696666Y-112632033D02*
X100696666Y-111932033D01*
X100696666Y-111932033D02*
X100629999Y-112032033D01*
X100629999Y-112032033D02*
X100563333Y-112098700D01*
X100563333Y-112098700D02*
X100496666Y-112132033D01*
X96913333Y-119402033D02*
X96579999Y-119402033D01*
X96579999Y-119402033D02*
X96579999Y-118702033D01*
X97146666Y-119402033D02*
X97146666Y-118702033D01*
X97146666Y-118702033D02*
X97380000Y-119202033D01*
X97380000Y-119202033D02*
X97613333Y-118702033D01*
X97613333Y-118702033D02*
X97613333Y-119402033D01*
X97880000Y-118702033D02*
X98346666Y-118702033D01*
X98346666Y-118702033D02*
X98046666Y-119402033D01*
X98713333Y-119002033D02*
X98646667Y-118968700D01*
X98646667Y-118968700D02*
X98613333Y-118935366D01*
X98613333Y-118935366D02*
X98580000Y-118868700D01*
X98580000Y-118868700D02*
X98580000Y-118835366D01*
X98580000Y-118835366D02*
X98613333Y-118768700D01*
X98613333Y-118768700D02*
X98646667Y-118735366D01*
X98646667Y-118735366D02*
X98713333Y-118702033D01*
X98713333Y-118702033D02*
X98846667Y-118702033D01*
X98846667Y-118702033D02*
X98913333Y-118735366D01*
X98913333Y-118735366D02*
X98946667Y-118768700D01*
X98946667Y-118768700D02*
X98980000Y-118835366D01*
X98980000Y-118835366D02*
X98980000Y-118868700D01*
X98980000Y-118868700D02*
X98946667Y-118935366D01*
X98946667Y-118935366D02*
X98913333Y-118968700D01*
X98913333Y-118968700D02*
X98846667Y-119002033D01*
X98846667Y-119002033D02*
X98713333Y-119002033D01*
X98713333Y-119002033D02*
X98646667Y-119035366D01*
X98646667Y-119035366D02*
X98613333Y-119068700D01*
X98613333Y-119068700D02*
X98580000Y-119135366D01*
X98580000Y-119135366D02*
X98580000Y-119268700D01*
X98580000Y-119268700D02*
X98613333Y-119335366D01*
X98613333Y-119335366D02*
X98646667Y-119368700D01*
X98646667Y-119368700D02*
X98713333Y-119402033D01*
X98713333Y-119402033D02*
X98846667Y-119402033D01*
X98846667Y-119402033D02*
X98913333Y-119368700D01*
X98913333Y-119368700D02*
X98946667Y-119335366D01*
X98946667Y-119335366D02*
X98980000Y-119268700D01*
X98980000Y-119268700D02*
X98980000Y-119135366D01*
X98980000Y-119135366D02*
X98946667Y-119068700D01*
X98946667Y-119068700D02*
X98913333Y-119035366D01*
X98913333Y-119035366D02*
X98846667Y-119002033D01*
X99413334Y-118702033D02*
X99480000Y-118702033D01*
X99480000Y-118702033D02*
X99546667Y-118735366D01*
X99546667Y-118735366D02*
X99580000Y-118768700D01*
X99580000Y-118768700D02*
X99613334Y-118835366D01*
X99613334Y-118835366D02*
X99646667Y-118968700D01*
X99646667Y-118968700D02*
X99646667Y-119135366D01*
X99646667Y-119135366D02*
X99613334Y-119268700D01*
X99613334Y-119268700D02*
X99580000Y-119335366D01*
X99580000Y-119335366D02*
X99546667Y-119368700D01*
X99546667Y-119368700D02*
X99480000Y-119402033D01*
X99480000Y-119402033D02*
X99413334Y-119402033D01*
X99413334Y-119402033D02*
X99346667Y-119368700D01*
X99346667Y-119368700D02*
X99313334Y-119335366D01*
X99313334Y-119335366D02*
X99280000Y-119268700D01*
X99280000Y-119268700D02*
X99246667Y-119135366D01*
X99246667Y-119135366D02*
X99246667Y-118968700D01*
X99246667Y-118968700D02*
X99280000Y-118835366D01*
X99280000Y-118835366D02*
X99313334Y-118768700D01*
X99313334Y-118768700D02*
X99346667Y-118735366D01*
X99346667Y-118735366D02*
X99413334Y-118702033D01*
X100280001Y-118702033D02*
X99946667Y-118702033D01*
X99946667Y-118702033D02*
X99913334Y-119035366D01*
X99913334Y-119035366D02*
X99946667Y-119002033D01*
X99946667Y-119002033D02*
X100013334Y-118968700D01*
X100013334Y-118968700D02*
X100180001Y-118968700D01*
X100180001Y-118968700D02*
X100246667Y-119002033D01*
X100246667Y-119002033D02*
X100280001Y-119035366D01*
X100280001Y-119035366D02*
X100313334Y-119102033D01*
X100313334Y-119102033D02*
X100313334Y-119268700D01*
X100313334Y-119268700D02*
X100280001Y-119335366D01*
X100280001Y-119335366D02*
X100246667Y-119368700D01*
X100246667Y-119368700D02*
X100180001Y-119402033D01*
X100180001Y-119402033D02*
X100013334Y-119402033D01*
X100013334Y-119402033D02*
X99946667Y-119368700D01*
X99946667Y-119368700D02*
X99913334Y-119335366D01*
X100446668Y-119468700D02*
X100980001Y-119468700D01*
X101046667Y-118702033D02*
X101446667Y-118702033D01*
X101246667Y-119402033D02*
X101246667Y-118702033D01*
X101813334Y-118702033D02*
X101946667Y-118702033D01*
X101946667Y-118702033D02*
X102013334Y-118735366D01*
X102013334Y-118735366D02*
X102080000Y-118802033D01*
X102080000Y-118802033D02*
X102113334Y-118935366D01*
X102113334Y-118935366D02*
X102113334Y-119168700D01*
X102113334Y-119168700D02*
X102080000Y-119302033D01*
X102080000Y-119302033D02*
X102013334Y-119368700D01*
X102013334Y-119368700D02*
X101946667Y-119402033D01*
X101946667Y-119402033D02*
X101813334Y-119402033D01*
X101813334Y-119402033D02*
X101746667Y-119368700D01*
X101746667Y-119368700D02*
X101680000Y-119302033D01*
X101680000Y-119302033D02*
X101646667Y-119168700D01*
X101646667Y-119168700D02*
X101646667Y-118935366D01*
X101646667Y-118935366D02*
X101680000Y-118802033D01*
X101680000Y-118802033D02*
X101746667Y-118735366D01*
X101746667Y-118735366D02*
X101813334Y-118702033D01*
X102380000Y-118768700D02*
X102413333Y-118735366D01*
X102413333Y-118735366D02*
X102480000Y-118702033D01*
X102480000Y-118702033D02*
X102646667Y-118702033D01*
X102646667Y-118702033D02*
X102713333Y-118735366D01*
X102713333Y-118735366D02*
X102746667Y-118768700D01*
X102746667Y-118768700D02*
X102780000Y-118835366D01*
X102780000Y-118835366D02*
X102780000Y-118902033D01*
X102780000Y-118902033D02*
X102746667Y-119002033D01*
X102746667Y-119002033D02*
X102346667Y-119402033D01*
X102346667Y-119402033D02*
X102780000Y-119402033D01*
X103046667Y-118768700D02*
X103080000Y-118735366D01*
X103080000Y-118735366D02*
X103146667Y-118702033D01*
X103146667Y-118702033D02*
X103313334Y-118702033D01*
X103313334Y-118702033D02*
X103380000Y-118735366D01*
X103380000Y-118735366D02*
X103413334Y-118768700D01*
X103413334Y-118768700D02*
X103446667Y-118835366D01*
X103446667Y-118835366D02*
X103446667Y-118902033D01*
X103446667Y-118902033D02*
X103413334Y-119002033D01*
X103413334Y-119002033D02*
X103013334Y-119402033D01*
X103013334Y-119402033D02*
X103446667Y-119402033D01*
X103880001Y-118702033D02*
X103946667Y-118702033D01*
X103946667Y-118702033D02*
X104013334Y-118735366D01*
X104013334Y-118735366D02*
X104046667Y-118768700D01*
X104046667Y-118768700D02*
X104080001Y-118835366D01*
X104080001Y-118835366D02*
X104113334Y-118968700D01*
X104113334Y-118968700D02*
X104113334Y-119135366D01*
X104113334Y-119135366D02*
X104080001Y-119268700D01*
X104080001Y-119268700D02*
X104046667Y-119335366D01*
X104046667Y-119335366D02*
X104013334Y-119368700D01*
X104013334Y-119368700D02*
X103946667Y-119402033D01*
X103946667Y-119402033D02*
X103880001Y-119402033D01*
X103880001Y-119402033D02*
X103813334Y-119368700D01*
X103813334Y-119368700D02*
X103780001Y-119335366D01*
X103780001Y-119335366D02*
X103746667Y-119268700D01*
X103746667Y-119268700D02*
X103713334Y-119135366D01*
X103713334Y-119135366D02*
X103713334Y-118968700D01*
X103713334Y-118968700D02*
X103746667Y-118835366D01*
X103746667Y-118835366D02*
X103780001Y-118768700D01*
X103780001Y-118768700D02*
X103813334Y-118735366D01*
X103813334Y-118735366D02*
X103880001Y-118702033D01*
X114574666Y-80134033D02*
X114574666Y-80634033D01*
X114574666Y-80634033D02*
X114541333Y-80734033D01*
X114541333Y-80734033D02*
X114474666Y-80800700D01*
X114474666Y-80800700D02*
X114374666Y-80834033D01*
X114374666Y-80834033D02*
X114308000Y-80834033D01*
X114874666Y-80200700D02*
X114907999Y-80167366D01*
X114907999Y-80167366D02*
X114974666Y-80134033D01*
X114974666Y-80134033D02*
X115141333Y-80134033D01*
X115141333Y-80134033D02*
X115207999Y-80167366D01*
X115207999Y-80167366D02*
X115241333Y-80200700D01*
X115241333Y-80200700D02*
X115274666Y-80267366D01*
X115274666Y-80267366D02*
X115274666Y-80334033D01*
X115274666Y-80334033D02*
X115241333Y-80434033D01*
X115241333Y-80434033D02*
X114841333Y-80834033D01*
X114841333Y-80834033D02*
X115274666Y-80834033D01*
X122194666Y-79118033D02*
X122194666Y-79618033D01*
X122194666Y-79618033D02*
X122161333Y-79718033D01*
X122161333Y-79718033D02*
X122094666Y-79784700D01*
X122094666Y-79784700D02*
X121994666Y-79818033D01*
X121994666Y-79818033D02*
X121928000Y-79818033D01*
X122827999Y-79118033D02*
X122694666Y-79118033D01*
X122694666Y-79118033D02*
X122627999Y-79151366D01*
X122627999Y-79151366D02*
X122594666Y-79184700D01*
X122594666Y-79184700D02*
X122527999Y-79284700D01*
X122527999Y-79284700D02*
X122494666Y-79418033D01*
X122494666Y-79418033D02*
X122494666Y-79684700D01*
X122494666Y-79684700D02*
X122527999Y-79751366D01*
X122527999Y-79751366D02*
X122561333Y-79784700D01*
X122561333Y-79784700D02*
X122627999Y-79818033D01*
X122627999Y-79818033D02*
X122761333Y-79818033D01*
X122761333Y-79818033D02*
X122827999Y-79784700D01*
X122827999Y-79784700D02*
X122861333Y-79751366D01*
X122861333Y-79751366D02*
X122894666Y-79684700D01*
X122894666Y-79684700D02*
X122894666Y-79518033D01*
X122894666Y-79518033D02*
X122861333Y-79451366D01*
X122861333Y-79451366D02*
X122827999Y-79418033D01*
X122827999Y-79418033D02*
X122761333Y-79384700D01*
X122761333Y-79384700D02*
X122627999Y-79384700D01*
X122627999Y-79384700D02*
X122561333Y-79418033D01*
X122561333Y-79418033D02*
X122527999Y-79451366D01*
X122527999Y-79451366D02*
X122494666Y-79518033D01*
X114574666Y-124076033D02*
X114574666Y-124576033D01*
X114574666Y-124576033D02*
X114541333Y-124676033D01*
X114541333Y-124676033D02*
X114474666Y-124742700D01*
X114474666Y-124742700D02*
X114374666Y-124776033D01*
X114374666Y-124776033D02*
X114308000Y-124776033D01*
X115241333Y-124076033D02*
X114907999Y-124076033D01*
X114907999Y-124076033D02*
X114874666Y-124409366D01*
X114874666Y-124409366D02*
X114907999Y-124376033D01*
X114907999Y-124376033D02*
X114974666Y-124342700D01*
X114974666Y-124342700D02*
X115141333Y-124342700D01*
X115141333Y-124342700D02*
X115207999Y-124376033D01*
X115207999Y-124376033D02*
X115241333Y-124409366D01*
X115241333Y-124409366D02*
X115274666Y-124476033D01*
X115274666Y-124476033D02*
X115274666Y-124642700D01*
X115274666Y-124642700D02*
X115241333Y-124709366D01*
X115241333Y-124709366D02*
X115207999Y-124742700D01*
X115207999Y-124742700D02*
X115141333Y-124776033D01*
X115141333Y-124776033D02*
X114974666Y-124776033D01*
X114974666Y-124776033D02*
X114907999Y-124742700D01*
X114907999Y-124742700D02*
X114874666Y-124709366D01*
X115181333Y-111934033D02*
X114948000Y-111600700D01*
X114781333Y-111934033D02*
X114781333Y-111234033D01*
X114781333Y-111234033D02*
X115048000Y-111234033D01*
X115048000Y-111234033D02*
X115114667Y-111267366D01*
X115114667Y-111267366D02*
X115148000Y-111300700D01*
X115148000Y-111300700D02*
X115181333Y-111367366D01*
X115181333Y-111367366D02*
X115181333Y-111467366D01*
X115181333Y-111467366D02*
X115148000Y-111534033D01*
X115148000Y-111534033D02*
X115114667Y-111567366D01*
X115114667Y-111567366D02*
X115048000Y-111600700D01*
X115048000Y-111600700D02*
X114781333Y-111600700D01*
X115414667Y-111234033D02*
X115848000Y-111234033D01*
X115848000Y-111234033D02*
X115614667Y-111500700D01*
X115614667Y-111500700D02*
X115714667Y-111500700D01*
X115714667Y-111500700D02*
X115781333Y-111534033D01*
X115781333Y-111534033D02*
X115814667Y-111567366D01*
X115814667Y-111567366D02*
X115848000Y-111634033D01*
X115848000Y-111634033D02*
X115848000Y-111800700D01*
X115848000Y-111800700D02*
X115814667Y-111867366D01*
X115814667Y-111867366D02*
X115781333Y-111900700D01*
X115781333Y-111900700D02*
X115714667Y-111934033D01*
X115714667Y-111934033D02*
X115514667Y-111934033D01*
X115514667Y-111934033D02*
X115448000Y-111900700D01*
X115448000Y-111900700D02*
X115414667Y-111867366D01*
X114798000Y-115074033D02*
X114464666Y-115074033D01*
X114464666Y-115074033D02*
X114431333Y-115407366D01*
X114431333Y-115407366D02*
X114464666Y-115374033D01*
X114464666Y-115374033D02*
X114531333Y-115340700D01*
X114531333Y-115340700D02*
X114698000Y-115340700D01*
X114698000Y-115340700D02*
X114764666Y-115374033D01*
X114764666Y-115374033D02*
X114798000Y-115407366D01*
X114798000Y-115407366D02*
X114831333Y-115474033D01*
X114831333Y-115474033D02*
X114831333Y-115640700D01*
X114831333Y-115640700D02*
X114798000Y-115707366D01*
X114798000Y-115707366D02*
X114764666Y-115740700D01*
X114764666Y-115740700D02*
X114698000Y-115774033D01*
X114698000Y-115774033D02*
X114531333Y-115774033D01*
X114531333Y-115774033D02*
X114464666Y-115740700D01*
X114464666Y-115740700D02*
X114431333Y-115707366D01*
X115431333Y-115074033D02*
X115298000Y-115074033D01*
X115298000Y-115074033D02*
X115231333Y-115107366D01*
X115231333Y-115107366D02*
X115198000Y-115140700D01*
X115198000Y-115140700D02*
X115131333Y-115240700D01*
X115131333Y-115240700D02*
X115098000Y-115374033D01*
X115098000Y-115374033D02*
X115098000Y-115640700D01*
X115098000Y-115640700D02*
X115131333Y-115707366D01*
X115131333Y-115707366D02*
X115164667Y-115740700D01*
X115164667Y-115740700D02*
X115231333Y-115774033D01*
X115231333Y-115774033D02*
X115364667Y-115774033D01*
X115364667Y-115774033D02*
X115431333Y-115740700D01*
X115431333Y-115740700D02*
X115464667Y-115707366D01*
X115464667Y-115707366D02*
X115498000Y-115640700D01*
X115498000Y-115640700D02*
X115498000Y-115474033D01*
X115498000Y-115474033D02*
X115464667Y-115407366D01*
X115464667Y-115407366D02*
X115431333Y-115374033D01*
X115431333Y-115374033D02*
X115364667Y-115340700D01*
X115364667Y-115340700D02*
X115231333Y-115340700D01*
X115231333Y-115340700D02*
X115164667Y-115374033D01*
X115164667Y-115374033D02*
X115131333Y-115407366D01*
X115131333Y-115407366D02*
X115098000Y-115474033D01*
X115931334Y-115074033D02*
X115998000Y-115074033D01*
X115998000Y-115074033D02*
X116064667Y-115107366D01*
X116064667Y-115107366D02*
X116098000Y-115140700D01*
X116098000Y-115140700D02*
X116131334Y-115207366D01*
X116131334Y-115207366D02*
X116164667Y-115340700D01*
X116164667Y-115340700D02*
X116164667Y-115507366D01*
X116164667Y-115507366D02*
X116131334Y-115640700D01*
X116131334Y-115640700D02*
X116098000Y-115707366D01*
X116098000Y-115707366D02*
X116064667Y-115740700D01*
X116064667Y-115740700D02*
X115998000Y-115774033D01*
X115998000Y-115774033D02*
X115931334Y-115774033D01*
X115931334Y-115774033D02*
X115864667Y-115740700D01*
X115864667Y-115740700D02*
X115831334Y-115707366D01*
X115831334Y-115707366D02*
X115798000Y-115640700D01*
X115798000Y-115640700D02*
X115764667Y-115507366D01*
X115764667Y-115507366D02*
X115764667Y-115340700D01*
X115764667Y-115340700D02*
X115798000Y-115207366D01*
X115798000Y-115207366D02*
X115831334Y-115140700D01*
X115831334Y-115140700D02*
X115864667Y-115107366D01*
X115864667Y-115107366D02*
X115931334Y-115074033D01*
X104043333Y-121389366D02*
X104010000Y-121422700D01*
X104010000Y-121422700D02*
X103910000Y-121456033D01*
X103910000Y-121456033D02*
X103843333Y-121456033D01*
X103843333Y-121456033D02*
X103743333Y-121422700D01*
X103743333Y-121422700D02*
X103676667Y-121356033D01*
X103676667Y-121356033D02*
X103643333Y-121289366D01*
X103643333Y-121289366D02*
X103610000Y-121156033D01*
X103610000Y-121156033D02*
X103610000Y-121056033D01*
X103610000Y-121056033D02*
X103643333Y-120922700D01*
X103643333Y-120922700D02*
X103676667Y-120856033D01*
X103676667Y-120856033D02*
X103743333Y-120789366D01*
X103743333Y-120789366D02*
X103843333Y-120756033D01*
X103843333Y-120756033D02*
X103910000Y-120756033D01*
X103910000Y-120756033D02*
X104010000Y-120789366D01*
X104010000Y-120789366D02*
X104043333Y-120822700D01*
X104276667Y-120756033D02*
X104710000Y-120756033D01*
X104710000Y-120756033D02*
X104476667Y-121022700D01*
X104476667Y-121022700D02*
X104576667Y-121022700D01*
X104576667Y-121022700D02*
X104643333Y-121056033D01*
X104643333Y-121056033D02*
X104676667Y-121089366D01*
X104676667Y-121089366D02*
X104710000Y-121156033D01*
X104710000Y-121156033D02*
X104710000Y-121322700D01*
X104710000Y-121322700D02*
X104676667Y-121389366D01*
X104676667Y-121389366D02*
X104643333Y-121422700D01*
X104643333Y-121422700D02*
X104576667Y-121456033D01*
X104576667Y-121456033D02*
X104376667Y-121456033D01*
X104376667Y-121456033D02*
X104310000Y-121422700D01*
X104310000Y-121422700D02*
X104276667Y-121389366D01*
X104043333Y-125556033D02*
X103643333Y-125556033D01*
X103843333Y-125556033D02*
X103843333Y-124856033D01*
X103843333Y-124856033D02*
X103776666Y-124956033D01*
X103776666Y-124956033D02*
X103710000Y-125022700D01*
X103710000Y-125022700D02*
X103643333Y-125056033D01*
X104643333Y-125089366D02*
X104643333Y-125556033D01*
X104343333Y-125089366D02*
X104343333Y-125456033D01*
X104343333Y-125456033D02*
X104376667Y-125522700D01*
X104376667Y-125522700D02*
X104443333Y-125556033D01*
X104443333Y-125556033D02*
X104543333Y-125556033D01*
X104543333Y-125556033D02*
X104610000Y-125522700D01*
X104610000Y-125522700D02*
X104643333Y-125489366D01*
D15*
%TO.C,R1*%
X112428000Y-99060000D02*
X113378000Y-99060000D01*
X113378000Y-98140000D02*
X113378000Y-99980000D01*
X113378000Y-99980000D02*
X117218000Y-99980000D01*
X117218000Y-98140000D02*
X113378000Y-98140000D01*
X117218000Y-99980000D02*
X117218000Y-98140000D01*
X118168000Y-99060000D02*
X117218000Y-99060000D01*
%TO.C,J3*%
X101794000Y-82356000D02*
X101794000Y-81026000D01*
X103124000Y-82356000D02*
X101794000Y-82356000D01*
X104394000Y-82356000D02*
X109534000Y-82356000D01*
X104394000Y-82356000D02*
X104394000Y-79696000D01*
X109534000Y-82356000D02*
X109534000Y-79696000D01*
X104394000Y-79696000D02*
X109534000Y-79696000D01*
%TO.C,C2*%
X105055000Y-85186000D02*
X106313000Y-85186000D01*
X105055000Y-87026000D02*
X106313000Y-87026000D01*
%TO.C,C1*%
X98665000Y-84932000D02*
X99923000Y-84932000D01*
X98665000Y-86772000D02*
X99923000Y-86772000D01*
%TO.C,D1*%
X114268000Y-104627000D02*
X114268000Y-107717000D01*
X119817999Y-106172462D02*
G75*
G03*
X114268001Y-104627170I-2989999J462D01*
G01*
X114268000Y-107716830D02*
G75*
G03*
X119818000Y-106171538I2560000J1544830D01*
G01*
X119328000Y-106172000D02*
G75*
G03*
X119328000Y-106172000I-2500000J0D01*
G01*
%TO.C,SW1*%
X110608000Y-90614000D02*
X110608000Y-91997000D01*
X110608000Y-90614000D02*
X111991000Y-90614000D01*
X110848000Y-90854000D02*
X110848000Y-92164000D01*
X110848000Y-90854000D02*
X117668000Y-90854000D01*
X110848000Y-93764000D02*
X110848000Y-95074000D01*
X110848000Y-95074000D02*
X117668000Y-95074000D01*
X112448000Y-92329000D02*
X112448000Y-93599000D01*
X112448000Y-92449000D02*
X113654667Y-92449000D01*
X112448000Y-92569000D02*
X113654667Y-92569000D01*
X112448000Y-92689000D02*
X113654667Y-92689000D01*
X112448000Y-92809000D02*
X113654667Y-92809000D01*
X112448000Y-92929000D02*
X113654667Y-92929000D01*
X112448000Y-93049000D02*
X113654667Y-93049000D01*
X112448000Y-93169000D02*
X113654667Y-93169000D01*
X112448000Y-93289000D02*
X113654667Y-93289000D01*
X112448000Y-93409000D02*
X113654667Y-93409000D01*
X112448000Y-93529000D02*
X113654667Y-93529000D01*
X112448000Y-93599000D02*
X116068000Y-93599000D01*
X113654667Y-92329000D02*
X113654667Y-93599000D01*
X116068000Y-92329000D02*
X112448000Y-92329000D01*
X116068000Y-93599000D02*
X116068000Y-92329000D01*
X117668000Y-90854000D02*
X117668000Y-92164000D01*
X117668000Y-93764000D02*
X117668000Y-95074000D01*
%TO.C,J7*%
X100524000Y-131886000D02*
X100524000Y-130556000D01*
X101854000Y-131886000D02*
X100524000Y-131886000D01*
X103124000Y-131886000D02*
X108264000Y-131886000D01*
X103124000Y-131886000D02*
X103124000Y-129226000D01*
X108264000Y-131886000D02*
X108264000Y-129226000D01*
X103124000Y-129226000D02*
X108264000Y-129226000D01*
%TO.C,R2*%
X112428000Y-120396000D02*
X113378000Y-120396000D01*
X113378000Y-119476000D02*
X113378000Y-121316000D01*
X113378000Y-121316000D02*
X117218000Y-121316000D01*
X117218000Y-119476000D02*
X113378000Y-119476000D01*
X117218000Y-121316000D02*
X117218000Y-119476000D01*
X118168000Y-120396000D02*
X117218000Y-120396000D01*
%TO.C,U2*%
X95718000Y-90456000D02*
X95718000Y-95097000D01*
X95718000Y-90456000D02*
X105958000Y-90456000D01*
X95718000Y-91966000D02*
X105958000Y-91966000D01*
X95718000Y-95097000D02*
X105958000Y-95097000D01*
X98988000Y-90456000D02*
X98988000Y-91966000D01*
X102689000Y-90456000D02*
X102689000Y-91966000D01*
X105958000Y-90456000D02*
X105958000Y-95097000D01*
%TO.C,J8*%
X95070000Y-100302000D02*
X109770000Y-100302000D01*
X95070000Y-109502000D02*
X95070000Y-100302000D01*
X103870000Y-109502000D02*
X95070000Y-109502000D01*
X108920000Y-100102000D02*
X109970000Y-100102000D01*
X109770000Y-100302000D02*
X109770000Y-102902000D01*
X109770000Y-106802000D02*
X109770000Y-109502000D01*
X109770000Y-109502000D02*
X107870000Y-109502000D01*
X109970000Y-101152000D02*
X109970000Y-100102000D01*
%TO.C,U1*%
X95210000Y-113316000D02*
X95210000Y-117957000D01*
X95210000Y-113316000D02*
X105450000Y-113316000D01*
X95210000Y-114826000D02*
X105450000Y-114826000D01*
X95210000Y-117957000D02*
X105450000Y-117957000D01*
X98480000Y-113316000D02*
X98480000Y-114826000D01*
X102181000Y-113316000D02*
X102181000Y-114826000D01*
X105450000Y-113316000D02*
X105450000Y-117957000D01*
%TO.C,J2*%
X111252000Y-79416000D02*
X111252000Y-87036000D01*
X111252000Y-87036000D02*
X121412000Y-87036000D01*
X121412000Y-79416000D02*
X111252000Y-79416000D01*
X121412000Y-85766000D02*
X111252000Y-85766000D01*
X121412000Y-87036000D02*
X121412000Y-79416000D01*
%TO.C,J6*%
X123638000Y-79696000D02*
X124968000Y-79696000D01*
X123638000Y-81026000D02*
X123638000Y-79696000D01*
X123638000Y-82296000D02*
X123638000Y-84896000D01*
X123638000Y-82296000D02*
X126298000Y-82296000D01*
X123638000Y-84896000D02*
X126298000Y-84896000D01*
X126298000Y-82296000D02*
X126298000Y-84896000D01*
%TO.C,J5*%
X109728000Y-125730000D02*
X109728000Y-133350000D01*
X109728000Y-133350000D02*
X119888000Y-133350000D01*
X119888000Y-125730000D02*
X109728000Y-125730000D01*
X119888000Y-132080000D02*
X109728000Y-132080000D01*
X119888000Y-133350000D02*
X119888000Y-125730000D01*
%TO.C,R3*%
X112428000Y-113538000D02*
X113378000Y-113538000D01*
X113378000Y-112618000D02*
X113378000Y-114458000D01*
X113378000Y-114458000D02*
X117218000Y-114458000D01*
X117218000Y-112618000D02*
X113378000Y-112618000D01*
X117218000Y-114458000D02*
X117218000Y-112618000D01*
X118168000Y-113538000D02*
X117218000Y-113538000D01*
%TO.C,J4*%
X123638000Y-127956000D02*
X124968000Y-127956000D01*
X123638000Y-129286000D02*
X123638000Y-127956000D01*
X123638000Y-130556000D02*
X123638000Y-133156000D01*
X123638000Y-130556000D02*
X126298000Y-130556000D01*
X123638000Y-133156000D02*
X126298000Y-133156000D01*
X126298000Y-130556000D02*
X126298000Y-133156000D01*
%TO.C,C3*%
X103531000Y-122270000D02*
X104789000Y-122270000D01*
X103531000Y-124110000D02*
X104789000Y-124110000D01*
%TD*%
M02*
